<svg version="1.1" viewBox="0.0 0.0 238.0288713910761 222.60367454068242" fill="none" stroke="none" stroke-linecap="square" stroke-miterlimit="10" xmlns:xlink="http://www.w3.org/1999/xlink" xmlns="http://www.w3.org/2000/svg"><clipPath id="p.0"><path d="m0 0l238.02887 0l0 222.60367l-238.02887 0l0 -222.60367z" clip-rule="nonzero"/></clipPath><g clip-path="url(#p.0)"><path fill="#000000" fill-opacity="0.0" d="m0 0l238.02887 0l0 222.60367l-238.02887 0z" fill-rule="evenodd"/><path fill="#000000" fill-opacity="0.0" d="m126.45356 109.356804c0 22.299202 0.01574707 33.448814 0.03149414 44.598427c0.01574707 11.149597 0.03149414 22.29921 0.03149414 44.59842" fill-rule="evenodd"/><path stroke="#f887bc" stroke-width="1.0" stroke-linejoin="round" stroke-linecap="butt" d="m126.45356 109.356804c0 22.299202 0.01574707 33.448814 0.03149414 44.598427c0.01574707 11.149597 0.03149414 22.29921 0.03149414 44.59842" fill-rule="evenodd"/><path fill="#000000" fill-opacity="0.0" d="m115.23497 205.3264l-72.06299 -40.0" fill-rule="evenodd"/><path stroke="#f887bc" stroke-width="1.0" stroke-linejoin="round" stroke-linecap="butt" d="m115.23497 205.3264l-72.06299 -40.0" fill-rule="evenodd"/><path fill="#000000" fill-opacity="0.0" d="m32.086647 145.42143l0 -69.41731" fill-rule="evenodd"/><path stroke="#f887bc" stroke-width="1.0" stroke-linejoin="round" stroke-linecap="butt" d="m32.086647 145.42143l0 -69.41731" fill-rule="evenodd"/><path fill="#000000" fill-opacity="0.0" d="m35.970325 64.60809l90.4252 44.944885" fill-rule="evenodd"/><path stroke="#f887bc" stroke-width="1.0" stroke-linejoin="round" stroke-linecap="butt" d="m35.970325 64.60809l90.4252 44.944885" fill-rule="evenodd"/><path fill="#000000" fill-opacity="0.0" d="m32.057682 76.03057c0.0410347 -0.36971283 0.10655594 -1.3888321 0.24621582 -2.218277c0.13965607 -0.82943726 0.32897568 -1.8140793 0.59173965 -2.7583618c0.2627678 -0.94429016 0.6648483 -2.1189575 0.98485947 -2.9073563c0.32000732 -0.78839874 0.58208466 -1.2481308 0.93519974 -1.8230438c0.35311508 -0.57492065 0.9862366 -1.3553925 1.1834831 -1.6264648" fill-rule="evenodd"/><path stroke="#f887bc" stroke-width="1.0" stroke-linejoin="round" stroke-linecap="butt" d="m32.057682 76.03057c0.0410347 -0.36971283 0.10655594 -1.3888321 0.24621582 -2.218277c0.13965607 -0.82943726 0.32897568 -1.8140793 0.59173965 -2.7583618c0.2627678 -0.94429016 0.6648483 -2.1189575 0.98485947 -2.9073563c0.32000732 -0.78839874 0.58208466 -1.2481308 0.93519974 -1.8230438c0.35311508 -0.57492065 0.9862366 -1.3553925 1.1834831 -1.6264648" fill-rule="evenodd"/><path fill="#f887bc" d="m113.11725 204.43039l0 0c-4.461769 -2.4961548 -6.104561 -8.037949 -3.6692886 -12.377945q0.13633728 -0.24298096 7.8518295 3.7542267q4.3865585 -7.232559 4.6363525 -7.092819l0 0c4.461769 2.4961548 6.1045685 8.037964 3.6692963 12.37796l0 0c-2.4352722 4.3399963 -8.026428 5.834732 -12.48819 3.3385773z" fill-rule="evenodd"/><path stroke="#f887bc" stroke-width="1.0" stroke-linejoin="round" stroke-linecap="butt" d="m113.11725 204.43039l0 0c-4.461769 -2.4961548 -6.104561 -8.037949 -3.6692886 -12.377945q0.13633728 -0.24298096 7.8518295 3.7542267q4.3865585 -7.232559 4.6363525 -7.092819l0 0c4.461769 2.4961548 6.1045685 8.037964 3.6692963 12.37796l0 0c-2.4352722 4.3399963 -8.026428 5.834732 -12.48819 3.3385773z" fill-rule="evenodd"/><path fill="#f887bc" d="m35.581688 134.91951l0 0c4.774872 -2.5396423 12.579926 2.797699 17.433071 11.921265q0.27170563 0.51078796 -7.567608 5.3356323q7.9766655 15.640289 7.709339 15.782471l0 0c-4.774868 2.5396423 -12.579922 -2.7976837 -17.433067 -11.921249l0 0c-4.8531494 -9.123581 -4.916605 -18.578476 -0.14173508 -21.118118z" fill-rule="evenodd"/><path stroke="#f887bc" stroke-width="1.0" stroke-linejoin="round" stroke-linecap="butt" d="m35.581688 134.91951l0 0c4.774872 -2.5396423 12.579926 2.797699 17.433071 11.921265q0.27170563 0.51078796 -7.567608 5.3356323q7.9766655 15.640289 7.709339 15.782471l0 0c-4.774868 2.5396423 -12.579922 -2.7976837 -17.433067 -11.921249l0 0c-4.8531494 -9.123581 -4.916605 -18.578476 -0.14173508 -21.118118z" fill-rule="evenodd"/><path fill="#f887bc" d="m100.56308 110.14099l25.669289 0l0 83.086624l-25.669289 0z" fill-rule="evenodd"/><path stroke="#f887bc" stroke-width="1.0" stroke-linejoin="round" stroke-linecap="butt" d="m100.56308 110.14099l25.669289 0l0 83.086624l-25.669289 0z" fill-rule="evenodd"/><path fill="#f887bc" d="m44.669327 166.48639l12.440945 -22.48819l68.409454 37.88977l-12.4409485 22.48819z" fill-rule="evenodd"/><path stroke="#f887bc" stroke-width="1.0" stroke-linejoin="round" stroke-linecap="butt" d="m44.669327 166.48639l12.440945 -22.48819l68.409454 37.88977l-12.4409485 22.48819z" fill-rule="evenodd"/><path fill="#f887bc" d="m32.35768 92.80193l11.968506 -23.874016l81.51181 40.8189l-11.968506 23.874016z" fill-rule="evenodd"/><path stroke="#f887bc" stroke-width="1.0" stroke-linejoin="round" stroke-linecap="butt" d="m32.35768 92.80193l11.968506 -23.874016l81.51181 40.8189l-11.968506 23.874016z" fill-rule="evenodd"/><path fill="#f887bc" d="m32.03492 93.226l51.874016 0l0 50.803146l-51.874016 0z" fill-rule="evenodd"/><path stroke="#f887bc" stroke-width="1.0" stroke-linejoin="round" stroke-linecap="butt" d="m32.03492 93.226l51.874016 0l0 50.803146l-51.874016 0z" fill-rule="evenodd"/><path fill="#f887bc" d="m43.18109 109.549225l51.874016 0l0 50.803146l-51.874016 0z" fill-rule="evenodd"/><path stroke="#f887bc" stroke-width="1.0" stroke-linejoin="round" stroke-linecap="butt" d="m43.18109 109.549225l51.874016 0l0 50.803146l-51.874016 0z" fill-rule="evenodd"/><path fill="#f887bc" d="m59.168926 118.7216l51.874012 0l0 50.803146l-51.874012 0z" fill-rule="evenodd"/><path stroke="#f887bc" stroke-width="1.0" stroke-linejoin="round" stroke-linecap="butt" d="m59.168926 118.7216l51.874012 0l0 50.803146l-51.874012 0z" fill-rule="evenodd"/><path fill="#f887bc" d="m43.66624 68.59673l-10.58268 22.173233l3.6535454 -25.480316z" fill-rule="evenodd"/><path stroke="#f887bc" stroke-width="1.0" stroke-linejoin="round" stroke-linecap="butt" d="m43.66624 68.59673l-10.58268 22.173233l3.6535454 -25.480316z" fill-rule="evenodd"/><path fill="#f887bc" d="m32.19424 74.71778l15.149609 0l0 18.267715l-15.149609 0z" fill-rule="evenodd"/><path stroke="#f887bc" stroke-width="1.0" stroke-linejoin="round" stroke-linecap="butt" d="m32.19424 74.71778l15.149609 0l0 18.267715l-15.149609 0z" fill-rule="evenodd"/><path fill="#f887bc" d="m32.699097 72.890755l4.4409485 0l0 3.6535416l-4.4409485 0z" fill-rule="evenodd"/><path stroke="#f887bc" stroke-width="1.0" stroke-linejoin="round" stroke-linecap="butt" d="m32.699097 72.890755l4.4409485 0l0 3.6535416l-4.4409485 0z" fill-rule="evenodd"/><path fill="#f887bc" d="m36.10061 64.653885l2.2677155 1.2283478l-2.582676 4.661415l-2.2677155 -1.2283478z" fill-rule="evenodd"/><path stroke="#f887bc" stroke-width="1.0" stroke-linejoin="round" stroke-linecap="butt" d="m36.10061 64.653885l2.2677155 1.2283478l-2.582676 4.661415l-2.2677155 -1.2283478z" fill-rule="evenodd"/><path fill="#f887bc" d="m33.340126 69.69399l4.4409447 0l0 3.6535416l-4.4409447 0z" fill-rule="evenodd"/><path stroke="#f887bc" stroke-width="1.0" stroke-linejoin="round" stroke-linecap="butt" d="m33.340126 69.69399l4.4409447 0l0 3.6535416l-4.4409447 0z" fill-rule="evenodd"/><path fill="#305bce" d="m126.521835 64.59469l0 44.755905l-90.64566 -44.755905z" fill-rule="evenodd"/><path stroke="#305bce" stroke-width="1.0" stroke-linejoin="round" stroke-linecap="butt" d="m126.521835 64.59469l0 44.755905l-90.64566 -44.755905z" fill-rule="evenodd"/><path fill="#305bce" d="m126.521835 68.94115l0 40.409447l79.2126 -40.409447z" fill-rule="evenodd"/><path stroke="#305bce" stroke-width="1.0" stroke-linejoin="round" stroke-linecap="butt" d="m126.521835 68.94115l0 40.409447l79.2126 -40.409447z" fill-rule="evenodd"/><path fill="#305bce" d="m116.029045 56.287685l0 -36.56693l-70.99213 36.56693z" fill-rule="evenodd"/><path stroke="#305bce" stroke-width="1.0" stroke-linejoin="round" stroke-linecap="butt" d="m116.029045 56.287685l0 -36.56693l-70.99213 36.56693z" fill-rule="evenodd"/><path fill="#305bce" d="m132.01733 54.74438l0 -35.023624l72.06299 35.023624z" fill-rule="evenodd"/><path stroke="#305bce" stroke-width="1.0" stroke-linejoin="round" stroke-linecap="butt" d="m132.01733 54.74438l0 -35.023624l72.06299 35.023624z" fill-rule="evenodd"/><path fill="#305bce" d="m195.14928 69.73718l0 0c-4.540039 -2.5483398 -6.316803 -8.0055275 -3.9685059 -12.188976q0.13146973 -0.23421478 7.975067 3.8604088q4.24321 -6.963711 4.4973755 -6.8210373l0 0c4.540039 2.548336 6.316803 8.0055275 3.9685059 12.188972l0 0c-2.348297 4.183449 -7.9324036 5.508972 -12.472443 2.9606323z" fill-rule="evenodd"/><path stroke="#305bce" stroke-width="1.0" stroke-linejoin="round" stroke-linecap="butt" d="m195.14928 69.73718l0 0c-4.540039 -2.5483398 -6.316803 -8.0055275 -3.9685059 -12.188976q0.13146973 -0.23421478 7.975067 3.8604088q4.24321 -6.963711 4.4973755 -6.8210373l0 0c4.540039 2.548336 6.316803 8.0055275 3.9685059 12.188972l0 0c-2.348297 4.183449 -7.9324036 5.508972 -12.472443 2.9606323z" fill-rule="evenodd"/><path fill="#ff00ff" d="m132.12459 21.926567l0 0c5.49675 4.2965145 6.885727 11.692631 3.102356 16.519684q-0.21180725 0.2702484 -9.760902 -6.757948q-6.7345047 7.9591236 -7.042244 7.7185802l0 0c-5.49675 -4.2965164 -6.885727 -11.692631 -3.102356 -16.519686l0 0c3.7833633 -4.827055 11.306389 -5.257145 16.803146 -0.9606304z" fill-rule="evenodd"/><path stroke="#305bce" stroke-width="1.0" stroke-linejoin="round" stroke-linecap="butt" d="m132.12459 21.926567l0 0c5.49675 4.2965145 6.885727 11.692631 3.102356 16.519684q-0.21180725 0.2702484 -9.760902 -6.757948q-6.7345047 7.9591236 -7.042244 7.7185802l0 0c-5.49675 -4.2965164 -6.885727 -11.692631 -3.102356 -16.519686l0 0c3.7833633 -4.827055 11.306389 -5.257145 16.803146 -0.9606304z" fill-rule="evenodd"/><path fill="#305bce" d="m45.38862 56.557175c-1.436943 1.3222771 -8.129215 6.9890327 -8.621643 7.9336624c-0.49243164 0.9446335 4.722557 -1.8882256 5.6670685 -2.265873" fill-rule="evenodd"/><path stroke="#305bce" stroke-width="1.0" stroke-linejoin="round" stroke-linecap="butt" d="m45.38862 56.557175c-1.436943 1.3222771 -8.129215 6.9890327 -8.621643 7.9336624c-0.49243164 0.9446335 4.722557 -1.8882256 5.6670685 -2.265873" fill-rule="evenodd"/><path fill="#305bce" d="m44.798878 56.36061c-0.50932693 0.4186859 -2.2428284 1.8551178 -3.0559578 2.5121193c-0.8131256 0.6569977 -1.1496887 0.82219696 -1.822815 1.4298782c-0.6731224 0.6076813 -1.5921173 1.5919762 -2.2159271 2.2162132c-0.6238136 0.62423706 -1.2724533 1.2743378 -1.5269432 1.5292053" fill-rule="evenodd"/><path stroke="#305bce" stroke-width="1.0" stroke-linejoin="round" stroke-linecap="butt" d="m44.798878 56.36061c-0.50932693 0.4186859 -2.2428284 1.8551178 -3.0559578 2.5121193c-0.8131256 0.6569977 -1.1496887 0.82219696 -1.822815 1.4298782c-0.6731224 0.6076813 -1.5921173 1.5919762 -2.2159271 2.2162132c-0.6238136 0.62423706 -1.2724533 1.2743378 -1.5269432 1.5292053" fill-rule="evenodd"/><path fill="#305bce" d="m39.330505 65.27776c-0.5500183 -0.114852905 -2.9304352 -0.3441925 -3.3001022 -0.6890793c-0.36966705 -0.34487915 0.9017525 -1.1501808 1.0821037 -1.3802147" fill-rule="evenodd"/><path stroke="#305bce" stroke-width="1.0" stroke-linejoin="round" stroke-linecap="butt" d="m39.330505 65.27776c-0.5500183 -0.114852905 -2.9304352 -0.3441925 -3.3001022 -0.6890793c-0.36966705 -0.34487915 0.9017525 -1.1501808 1.0821037 -1.3802147" fill-rule="evenodd"/><path fill="#000000" fill-opacity="0.0" d="m44.600487 57.149006c0.016551971 -0.12312317 0.08275986 -0.61561584 0.09931183 -0.738739" fill-rule="evenodd"/><path stroke="#305bce" stroke-width="1.0" stroke-linejoin="round" stroke-linecap="butt" d="m44.600487 57.149006c0.016551971 -0.12312317 0.08275986 -0.61561584 0.09931183 -0.738739" fill-rule="evenodd"/><path fill="#cfe2f3" d="m44.699802 56.410267c0 0 4.2373695 0.1965828 4.2373695 0.1965828c0 0 -4.2373695 -0.1965828 -4.2373695 -0.1965828z" fill-rule="evenodd"/><path stroke="#305bce" stroke-width="1.0" stroke-linejoin="round" stroke-linecap="butt" d="m44.699802 56.410267c0 0 4.2373695 0.1965828 4.2373695 0.1965828c0 0 -4.2373695 -0.1965828 -4.2373695 -0.1965828z" fill-rule="evenodd"/><path fill="#305bce" d="m37.916107 65.04642l0 0c-0.34500122 -0.2986145 -0.38235092 -0.8201523 -0.083423615 -1.1648865l6.728504 -7.7594833c0.14355087 -0.16554642 0.34703827 -0.26734924 0.5656967 -0.28300858c0.21865463 -0.015659332 0.4345703 0.056106567 0.6002464 0.19950485l2.4986649 2.1627083c0.34500122 0.29861832 0.38235474 0.8201561 0.083423615 1.1648903l-6.728504 7.7594833c-0.29893112 0.3447342 -0.8209381 0.38211823 -1.1659431 0.08350372z" fill-rule="evenodd"/><path fill="#305bce" d="m39.115578 62.11743l0 0c-0.13336563 -0.11886597 -0.14525986 -0.32347107 -0.026573181 -0.4569931l1.3339729 -1.500721c0.056999207 -0.06412125 0.13710022 -0.102939606 0.22268677 -0.10791397c0.08558655 -0.00497818 0.16964722 0.024295807 0.23369217 0.08137512l0.9658699 0.8608856c0.13336182 0.11886597 0.14525986 0.32346725 0.026573181 0.4569893l-1.3339767 1.5007248c-0.118686676 0.13352203 -0.3230133 0.14540482 -0.45637512 0.026535034z" fill-rule="evenodd"/><path stroke="#305bce" stroke-width="1.0" stroke-linejoin="round" stroke-linecap="butt" d="m39.115578 62.11743l0 0c-0.13336563 -0.11886597 -0.14525986 -0.32347107 -0.026573181 -0.4569931l1.3339729 -1.500721c0.056999207 -0.06412125 0.13710022 -0.102939606 0.22268677 -0.10791397c0.08558655 -0.00497818 0.16964722 0.024295807 0.23369217 0.08137512l0.9658699 0.8608856c0.13336182 0.11886597 0.14525986 0.32346725 0.026573181 0.4569893l-1.3339767 1.5007248c-0.118686676 0.13352203 -0.3230133 0.14540482 -0.45637512 0.026535034z" fill-rule="evenodd"/><path fill="#305bce" d="m45.72282 64.51904l0 0c-0.7334938 0 -1.3281097 -0.59461594 -1.3281097 -1.3281097l0 -5.3122826l0 0c0 -0.3522377 0.13992691 -0.6900482 0.38899612 -0.93911743c0.2490654 -0.24906921 0.5868759 -0.38899612 0.9391136 -0.38899612l27.170551 0c0.7334976 0 1.3281097 0.59461594 1.3281097 1.3281136l0 5.3122826c0 0.7334938 -0.5946121 1.3281097 -1.3281097 1.3281097z" fill-rule="evenodd"/><path stroke="#305bce" stroke-width="1.0" stroke-linejoin="round" stroke-linecap="butt" d="m45.72282 64.51904l0 0c-0.7334938 0 -1.3281097 -0.59461594 -1.3281097 -1.3281097l0 -5.3122826l0 0c0 -0.3522377 0.13992691 -0.6900482 0.38899612 -0.93911743c0.2490654 -0.24906921 0.5868759 -0.38899612 0.9391136 -0.38899612l27.170551 0c0.7334976 0 1.3281097 0.59461594 1.3281097 1.3281136l0 5.3122826c0 0.7334938 -0.5946121 1.3281097 -1.3281097 1.3281097z" fill-rule="evenodd"/><path fill="#305bce" d="m38.488476 65.257744l0 0c-0.22034073 0 -0.3989601 -0.17862701 -0.3989601 -0.39896393l0 -1.5957832l0 0c0 -0.10580826 0.04203415 -0.20728683 0.11685181 -0.2821045c0.07482147 -0.07482147 0.17629623 -0.11685181 0.2821083 -0.11685181l43.233578 0c0.22033691 0 0.3989563 0.17861938 0.3989563 0.3989563l0 1.5957832c0 0.22033691 -0.17861938 0.39896393 -0.3989563 0.39896393z" fill-rule="evenodd"/><path stroke="#305bce" stroke-width="1.0" stroke-linejoin="round" stroke-linecap="butt" d="m38.488476 65.257744l0 0c-0.22034073 0 -0.3989601 -0.17862701 -0.3989601 -0.39896393l0 -1.5957832l0 0c0 -0.10580826 0.04203415 -0.20728683 0.11685181 -0.2821045c0.07482147 -0.07482147 0.17629623 -0.11685181 0.2821083 -0.11685181l43.233578 0c0.22033691 0 0.3989563 0.17861938 0.3989563 0.3989563l0 1.5957832c0 0.22033691 -0.17861938 0.39896393 -0.3989563 0.39896393z" fill-rule="evenodd"/><path fill="#305bce" d="m70.95077 64.51912l0 0c-0.7334976 0 -1.3281097 -0.5946121 -1.3281097 -1.3281059l0 -5.3122864l0 0c0 -0.3522339 0.1399231 -0.6900444 0.3889923 -0.9391136c0.24906921 -0.24906921 0.5868759 -0.38899612 0.93911743 -0.38899612l49.564247 0c0.7334976 0 1.3281174 0.59461594 1.3281174 1.3281097l0 5.3122864c0 0.7334938 -0.59461975 1.3281059 -1.3281174 1.3281059z" fill-rule="evenodd"/><path stroke="#305bce" stroke-width="1.0" stroke-linejoin="round" stroke-linecap="butt" d="m70.95077 64.51912l0 0c-0.7334976 0 -1.3281097 -0.5946121 -1.3281097 -1.3281059l0 -5.3122864l0 0c0 -0.3522339 0.1399231 -0.6900444 0.3889923 -0.9391136c0.24906921 -0.24906921 0.5868759 -0.38899612 0.93911743 -0.38899612l49.564247 0c0.7334976 0 1.3281174 0.59461594 1.3281174 1.3281097l0 5.3122864c0 0.7334938 -0.59461975 1.3281059 -1.3281174 1.3281059z" fill-rule="evenodd"/><path fill="#305bce" d="m134.70267 21.43205l0 0c5.496765 4.2965145 6.885727 11.692629 3.1023712 16.519686q-0.21182251 0.2702446 -9.76091 -6.7579517q-6.7345047 7.9591236 -7.042244 7.7185802l0 0c-5.4967575 -4.2965164 -6.8857346 -11.692629 -3.1023636 -16.519686l0 0c3.783371 -4.827055 11.3063965 -5.257143 16.803146 -0.9606285z" fill-rule="evenodd"/><path stroke="#305bce" stroke-width="1.0" stroke-linejoin="round" stroke-linecap="butt" d="m134.70267 21.43205l0 0c5.496765 4.2965145 6.885727 11.692629 3.1023712 16.519686q-0.21182251 0.2702446 -9.76091 -6.7579517q-6.7345047 7.9591236 -7.042244 7.7185802l0 0c-5.4967575 -4.2965164 -6.8857346 -11.692629 -3.1023636 -16.519686l0 0c3.783371 -4.827055 11.3063965 -5.257143 16.803146 -0.9606285z" fill-rule="evenodd"/><path fill="#305bce" d="m121.41929 17.993376l0 0c7.4362717 -0.8349514 14.014519 3.4306831 14.692909 9.527559q0.037979126 0.3413372 -12.555954 2.100994q0.7360611 10.403442 0.3197403 10.450188l0 0c-7.4362793 0.8349495 -14.014519 -3.4306831 -14.692917 -9.527561l0 0c-0.67839813 -6.096874 4.7999496 -11.71623 12.236221 -12.55118z" fill-rule="evenodd"/><path stroke="#305bce" stroke-width="1.0" stroke-linejoin="round" stroke-linecap="butt" d="m121.41929 17.993376l0 0c7.4362717 -0.8349514 14.014519 3.4306831 14.692909 9.527559q0.037979126 0.3413372 -12.555954 2.100994q0.7360611 10.403442 0.3197403 10.450188l0 0c-7.4362793 0.8349495 -14.014519 -3.4306831 -14.692917 -9.527561l0 0c-0.67839813 -6.096874 4.7999496 -11.71623 12.236221 -12.55118z" fill-rule="evenodd"/><path fill="#305bce" d="m134.24367 57.607574l0 0c0 -1.2495499 1.01297 -2.2625122 2.2625122 -2.2625122l63.09703 0c0.6000519 0 1.1755219 0.2383728 1.5998383 0.66267395c0.42430115 0.42430496 0.66267395 0.99978256 0.66267395 1.5998383l0 9.049782c0 1.2495499 -1.01297 2.2625122 -2.2625122 2.2625122l-63.09703 0l0 0c-1.2495422 0 -2.2625122 -1.0129623 -2.2625122 -2.2625122z" fill-rule="evenodd"/><path stroke="#305bce" stroke-width="1.0" stroke-linejoin="round" stroke-linecap="butt" d="m134.24367 57.607574l0 0c0 -1.2495499 1.01297 -2.2625122 2.2625122 -2.2625122l63.09703 0c0.6000519 0 1.1755219 0.2383728 1.5998383 0.66267395c0.42430115 0.42430496 0.66267395 0.99978256 0.66267395 1.5998383l0 9.049782c0 1.2495499 -1.01297 2.2625122 -2.2625122 2.2625122l-63.09703 0l0 0c-1.2495422 0 -2.2625122 -1.0129623 -2.2625122 -2.2625122z" fill-rule="evenodd"/><path fill="#305bce" d="m112.269966 57.628265l0 0c0 -1.2495499 1.0129623 -2.2625122 2.2625122 -2.2625122l63.097023 0c0.6000519 0 1.1755371 0.2383728 1.5998383 0.66267395c0.42430115 0.42430496 0.66267395 0.99978256 0.66267395 1.5998383l0 9.049782c0 1.2495499 -1.0129547 2.2625122 -2.2625122 2.2625122l-63.097023 0l0 0c-1.2495499 0 -2.2625122 -1.0129623 -2.2625122 -2.2625122z" fill-rule="evenodd"/><path stroke="#305bce" stroke-width="1.0" stroke-linejoin="round" stroke-linecap="butt" d="m112.269966 57.628265l0 0c0 -1.2495499 1.0129623 -2.2625122 2.2625122 -2.2625122l63.097023 0c0.6000519 0 1.1755371 0.2383728 1.5998383 0.66267395c0.42430115 0.42430496 0.66267395 0.99978256 0.66267395 1.5998383l0 9.049782c0 1.2495499 -1.0129547 2.2625122 -2.2625122 2.2625122l-63.097023 0l0 0c-1.2495499 0 -2.2625122 -1.0129623 -2.2625122 -2.2625122z" fill-rule="evenodd"/><path fill="#305bce" d="m71.182045 51.08644l72.062996 0l0 8.125984l-72.062996 0z" fill-rule="evenodd"/><path stroke="#305bce" stroke-width="1.0" stroke-linejoin="round" stroke-linecap="butt" d="m71.182045 51.08644l72.062996 0l0 8.125984l-72.062996 0z" fill-rule="evenodd"/><path fill="#305bce" d="m112.60723 33.219795l0 0c0 -2.7049446 2.1927872 -4.8977356 4.8977356 -4.8977356l19.590355 0l0 0c1.2989655 0 2.5447235 0.5160103 3.4632263 1.4345131c0.9185028 0.9185047 1.4345093 2.1642628 1.4345093 3.4632225l0 21.763584c0 2.7049446 -2.1927948 4.8977356 -4.8977356 4.8977356l-19.590355 0c-2.7049484 0 -4.8977356 -2.192791 -4.8977356 -4.8977356z" fill-rule="evenodd"/><path stroke="#305bce" stroke-width="1.0" stroke-linejoin="round" stroke-linecap="butt" d="m112.60723 33.219795l0 0c0 -2.7049446 2.1927872 -4.8977356 4.8977356 -4.8977356l19.590355 0l0 0c1.2989655 0 2.5447235 0.5160103 3.4632263 1.4345131c0.9185028 0.9185047 1.4345093 2.1642628 1.4345093 3.4632225l0 21.763584c0 2.7049446 -2.1927948 4.8977356 -4.8977356 4.8977356l-19.590355 0c-2.7049484 0 -4.8977356 -2.192791 -4.8977356 -4.8977356z" fill-rule="evenodd"/><path fill="#305bce" d="m188.95033 56.123055l0 0c0 -0.87555695 0.70977783 -1.5853348 1.5853271 -1.5853348l11.978943 0c0.42045593 0 0.8236847 0.16702652 1.1210022 0.4643364c0.29730225 0.29730606 0.46432495 0.70054245 0.46432495 1.1209984l0 6.3411446c0 0.87555313 -0.70977783 1.585331 -1.5853271 1.585331l-11.978943 0c-0.8755493 0 -1.5853271 -0.70977783 -1.5853271 -1.585331z" fill-rule="evenodd"/><path stroke="#305bce" stroke-width="1.0" stroke-linejoin="round" stroke-linecap="butt" d="m188.95033 56.123055l0 0c0 -0.87555695 0.70977783 -1.5853348 1.5853271 -1.5853348l11.978943 0c0.42045593 0 0.8236847 0.16702652 1.1210022 0.4643364c0.29730225 0.29730606 0.46432495 0.70054245 0.46432495 1.1209984l0 6.3411446c0 0.87555313 -0.70977783 1.585331 -1.5853271 1.585331l-11.978943 0c-0.8755493 0 -1.5853271 -0.70977783 -1.5853271 -1.585331z" fill-rule="evenodd"/></g></svg>