<svg version="1.1" viewBox="0.0 0.0 238.0288713910761 222.60367454068242" fill="none" stroke="none" stroke-linecap="square" stroke-miterlimit="10" xmlns:xlink="http://www.w3.org/1999/xlink" xmlns="http://www.w3.org/2000/svg"><clipPath id="p.0"><path d="m0 0l238.02887 0l0 222.60367l-238.02887 0l0 -222.60367z" clip-rule="nonzero"/></clipPath><g clip-path="url(#p.0)"><path fill="#000000" fill-opacity="0.0" d="m0 0l238.02887 0l0 222.60367l-238.02887 0z" fill-rule="evenodd"/><path fill="#000000" fill-opacity="0.0" d="m126.03385 116.9841c0 21.858261 0.01574707 32.7874 0.03149414 43.716537c0.01574707 10.929123 0.03149414 21.858261 0.03149414 43.716537" fill-rule="evenodd"/><path stroke="#36f1cd" stroke-width="1.0" stroke-linejoin="round" stroke-linecap="butt" d="m126.03385 116.9841c0 21.858261 0.01574707 32.7874 0.03149414 43.716537c0.01574707 10.929123 0.03149414 21.858261 0.03149414 43.716537" fill-rule="evenodd"/><path fill="#000000" fill-opacity="0.0" d="m115.22572 212.69948l-72.06299 -39.74803" fill-rule="evenodd"/><path stroke="#f887bc" stroke-width="1.0" stroke-linejoin="round" stroke-linecap="butt" d="m115.22572 212.69948l-72.06299 -39.74803" fill-rule="evenodd"/><path fill="#000000" fill-opacity="0.0" d="m32.086647 153.04874l0 -69.41732" fill-rule="evenodd"/><path stroke="#36f1cd" stroke-width="1.0" stroke-linejoin="round" stroke-linecap="butt" d="m32.086647 153.04874l0 -69.41732" fill-rule="evenodd"/><path fill="#000000" fill-opacity="0.0" d="m35.970325 72.23539l90.4252 44.944885" fill-rule="evenodd"/><path stroke="#f887bc" stroke-width="1.0" stroke-linejoin="round" stroke-linecap="butt" d="m35.970325 72.23539l90.4252 44.944885" fill-rule="evenodd"/><path fill="#000000" fill-opacity="0.0" d="m32.057682 83.65787c0.0410347 -0.36971283 0.10655594 -1.3888321 0.24621582 -2.218277c0.13965607 -0.82943726 0.32897568 -1.8140793 0.59173965 -2.7583618c0.2627678 -0.94429016 0.6648483 -2.1189575 0.98485947 -2.9073563c0.32000732 -0.78839874 0.58208466 -1.2481308 0.93519974 -1.8230438c0.35311508 -0.57492065 0.9862366 -1.3553925 1.1834831 -1.6264648" fill-rule="evenodd"/><path stroke="#36f1cd" stroke-width="1.0" stroke-linejoin="round" stroke-linecap="butt" d="m32.057682 83.65787c0.0410347 -0.36971283 0.10655594 -1.3888321 0.24621582 -2.218277c0.13965607 -0.82943726 0.32897568 -1.8140793 0.59173965 -2.7583618c0.2627678 -0.94429016 0.6648483 -2.1189575 0.98485947 -2.9073563c0.32000732 -0.78839874 0.58208466 -1.2481308 0.93519974 -1.8230438c0.35311508 -0.57492065 0.9862366 -1.3553925 1.1834831 -1.6264648" fill-rule="evenodd"/><path fill="#36f1cd" d="m112.44572 211.72192l0 0c-4.461769 -2.4961548 -6.1045685 -8.037949 -3.6692963 -12.37796q0.13634491 -0.2429657 7.8518295 3.754242q4.386566 -7.2325745 4.63636 -7.092819l0 0c4.461769 2.4961548 6.104561 8.037949 3.6692886 12.37796l0 0c-2.4352646 4.3399963 -8.026421 5.834732 -12.488182 3.3385773z" fill-rule="evenodd"/><path stroke="#36f1cd" stroke-width="1.0" stroke-linejoin="round" stroke-linecap="butt" d="m112.44572 211.72192l0 0c-4.461769 -2.4961548 -6.1045685 -8.037949 -3.6692963 -12.37796q0.13634491 -0.2429657 7.8518295 3.754242q4.386566 -7.2325745 4.63636 -7.092819l0 0c4.461769 2.4961548 6.104561 8.037949 3.6692886 12.37796l0 0c-2.4352646 4.3399963 -8.026421 5.834732 -12.488182 3.3385773z" fill-rule="evenodd"/><path fill="#36f1cd" d="m35.581688 142.54681l0 0c4.774872 -2.5396423 12.579926 2.7976837 17.433071 11.921249q0.27170563 0.51078796 -7.567608 5.3356476q7.9766655 15.640289 7.709339 15.782471l0 0c-4.774868 2.5396423 -12.579922 -2.797699 -17.433067 -11.921265l0 0c-4.8531494 -9.123566 -4.916605 -18.578476 -0.14173508 -21.118103z" fill-rule="evenodd"/><path stroke="#36f1cd" stroke-width="1.0" stroke-linejoin="round" stroke-linecap="butt" d="m35.581688 142.54681l0 0c4.774872 -2.5396423 12.579926 2.7976837 17.433071 11.921249q0.27170563 0.51078796 -7.567608 5.3356476q7.9766655 15.640289 7.709339 15.782471l0 0c-4.774868 2.5396423 -12.579922 -2.797699 -17.433067 -11.921265l0 0c-4.8531494 -9.123566 -4.916605 -18.578476 -0.14173508 -21.118103z" fill-rule="evenodd"/><path fill="#36f1cd" d="m100.56308 117.76829l25.669289 0l0 83.08662l-25.669289 0z" fill-rule="evenodd"/><path fill="#36f1cd" d="m44.669327 174.1137l12.440945 -22.48819l68.409454 37.889755l-12.4409485 22.48819z" fill-rule="evenodd"/><path stroke="#36f1cd" stroke-width="1.0" stroke-linejoin="round" stroke-linecap="butt" d="m44.669327 174.1137l12.440945 -22.48819l68.409454 37.889755l-12.4409485 22.48819z" fill-rule="evenodd"/><path fill="#36f1cd" d="m32.35768 100.42923l11.968506 -23.874016l81.51181 40.8189l-11.968506 23.874008z" fill-rule="evenodd"/><path stroke="#36f1cd" stroke-width="1.0" stroke-linejoin="round" stroke-linecap="butt" d="m32.35768 100.42923l11.968506 -23.874016l81.51181 40.8189l-11.968506 23.874008z" fill-rule="evenodd"/><path fill="#36f1cd" d="m32.03492 100.853294l51.874016 0l0 50.803154l-51.874016 0z" fill-rule="evenodd"/><path stroke="#36f1cd" stroke-width="1.0" stroke-linejoin="round" stroke-linecap="butt" d="m32.03492 100.853294l51.874016 0l0 50.803154l-51.874016 0z" fill-rule="evenodd"/><path fill="#36f1cd" d="m43.18109 117.17652l51.874016 0l0 50.803154l-51.874016 0z" fill-rule="evenodd"/><path stroke="#36f1cd" stroke-width="1.0" stroke-linejoin="round" stroke-linecap="butt" d="m43.18109 117.17652l51.874016 0l0 50.803154l-51.874016 0z" fill-rule="evenodd"/><path fill="#36f1cd" d="m59.168926 126.3489l51.874012 0l0 50.803154l-51.874012 0z" fill-rule="evenodd"/><path stroke="#36f1cd" stroke-width="1.0" stroke-linejoin="round" stroke-linecap="butt" d="m59.168926 126.3489l51.874012 0l0 50.803154l-51.874012 0z" fill-rule="evenodd"/><path fill="#36f1cd" d="m43.66624 76.22403l-10.58268 22.173233l3.6535454 -25.480316z" fill-rule="evenodd"/><path stroke="#36f1cd" stroke-width="1.0" stroke-linejoin="round" stroke-linecap="butt" d="m43.66624 76.22403l-10.58268 22.173233l3.6535454 -25.480316z" fill-rule="evenodd"/><path fill="#36f1cd" d="m32.19424 82.34508l15.149609 0l0 18.267715l-15.149609 0z" fill-rule="evenodd"/><path stroke="#36f1cd" stroke-width="1.0" stroke-linejoin="round" stroke-linecap="butt" d="m32.19424 82.34508l15.149609 0l0 18.267715l-15.149609 0z" fill-rule="evenodd"/><path fill="#36f1cd" d="m32.699097 80.51805l4.4409485 0l0 3.6535416l-4.4409485 0z" fill-rule="evenodd"/><path stroke="#36f1cd" stroke-width="1.0" stroke-linejoin="round" stroke-linecap="butt" d="m32.699097 80.51805l4.4409485 0l0 3.6535416l-4.4409485 0z" fill-rule="evenodd"/><path fill="#36f1cd" d="m36.10061 72.28118l2.2677155 1.2283478l-2.582676 4.661415l-2.2677155 -1.2283478z" fill-rule="evenodd"/><path stroke="#36f1cd" stroke-width="1.0" stroke-linejoin="round" stroke-linecap="butt" d="m36.10061 72.28118l2.2677155 1.2283478l-2.582676 4.661415l-2.2677155 -1.2283478z" fill-rule="evenodd"/><path fill="#36f1cd" d="m33.340126 77.32129l4.4409447 0l0 3.6535416l-4.4409447 0z" fill-rule="evenodd"/><path stroke="#36f1cd" stroke-width="1.0" stroke-linejoin="round" stroke-linecap="butt" d="m33.340126 77.32129l4.4409447 0l0 3.6535416l-4.4409447 0z" fill-rule="evenodd"/><path fill="#000022" d="m126.521835 72.221985l0 44.755905l-90.64566 -44.755905z" fill-rule="evenodd"/><path stroke="#000022" stroke-width="1.0" stroke-linejoin="round" stroke-linecap="butt" d="m126.521835 72.221985l0 44.755905l-90.64566 -44.755905z" fill-rule="evenodd"/><path fill="#000022" d="m126.521835 76.56844l0 40.409447l79.2126 -40.409447z" fill-rule="evenodd"/><path stroke="#000022" stroke-width="1.0" stroke-linejoin="round" stroke-linecap="butt" d="m126.521835 76.56844l0 40.409447l79.2126 -40.409447z" fill-rule="evenodd"/><path fill="#000022" d="m116.029045 63.91498l0 -36.56693l-70.99213 36.56693z" fill-rule="evenodd"/><path stroke="#000022" stroke-width="1.0" stroke-linejoin="round" stroke-linecap="butt" d="m116.029045 63.91498l0 -36.56693l-70.99213 36.56693z" fill-rule="evenodd"/><path fill="#000022" d="m132.01733 62.371677l0 -35.023624l72.06299 35.023624z" fill-rule="evenodd"/><path stroke="#000022" stroke-width="1.0" stroke-linejoin="round" stroke-linecap="butt" d="m132.01733 62.371677l0 -35.023624l72.06299 35.023624z" fill-rule="evenodd"/><path fill="#000022" d="m195.14928 77.36448l0 0c-4.540039 -2.5483398 -6.316803 -8.005531 -3.9685059 -12.188972q0.13146973 -0.23421478 7.975067 3.860405q4.24321 -6.963707 4.4973755 -6.8210373l0 0c4.540039 2.5483398 6.316803 8.005524 3.9685059 12.188972l0 0c-2.348297 4.183449 -7.9324036 5.508972 -12.472443 2.9606323z" fill-rule="evenodd"/><path stroke="#000022" stroke-width="1.0" stroke-linejoin="round" stroke-linecap="butt" d="m195.14928 77.36448l0 0c-4.540039 -2.5483398 -6.316803 -8.005531 -3.9685059 -12.188972q0.13146973 -0.23421478 7.975067 3.860405q4.24321 -6.963707 4.4973755 -6.8210373l0 0c4.540039 2.5483398 6.316803 8.005524 3.9685059 12.188972l0 0c-2.348297 4.183449 -7.9324036 5.508972 -12.472443 2.9606323z" fill-rule="evenodd"/><path fill="#ff00ff" d="m132.12459 29.553864l0 0c5.49675 4.2965164 6.885727 11.692631 3.102356 16.519688q-0.21180725 0.2702446 -9.760902 -6.7579536q-6.7345047 7.9591255 -7.042244 7.718582l0 0c-5.49675 -4.2965164 -6.885727 -11.692631 -3.102356 -16.519686l0 0c3.7833633 -4.827055 11.306389 -5.257145 16.803146 -0.9606304z" fill-rule="evenodd"/><path stroke="#305bce" stroke-width="1.0" stroke-linejoin="round" stroke-linecap="butt" d="m132.12459 29.553864l0 0c5.49675 4.2965164 6.885727 11.692631 3.102356 16.519688q-0.21180725 0.2702446 -9.760902 -6.7579536q-6.7345047 7.9591255 -7.042244 7.718582l0 0c-5.49675 -4.2965164 -6.885727 -11.692631 -3.102356 -16.519686l0 0c3.7833633 -4.827055 11.306389 -5.257145 16.803146 -0.9606304z" fill-rule="evenodd"/><path fill="#000022" d="m45.38862 64.18447c-1.436943 1.3222809 -8.129215 6.989029 -8.621643 7.9336624c-0.49243164 0.9446335 4.722557 -1.8882294 5.6670685 -2.2658691" fill-rule="evenodd"/><path stroke="#000022" stroke-width="1.0" stroke-linejoin="round" stroke-linecap="butt" d="m45.38862 64.18447c-1.436943 1.3222809 -8.129215 6.989029 -8.621643 7.9336624c-0.49243164 0.9446335 4.722557 -1.8882294 5.6670685 -2.2658691" fill-rule="evenodd"/><path fill="#000022" d="m44.798878 63.987907c-0.50932693 0.4186859 -2.2428284 1.8551178 -3.0559578 2.5121155c-0.8131256 0.6570053 -1.1496887 0.8222046 -1.822815 1.4298859c-0.6731224 0.6076813 -1.5921173 1.5919724 -2.2159271 2.2162094c-0.6238136 0.62423706 -1.2724533 1.2743378 -1.5269432 1.5292053" fill-rule="evenodd"/><path stroke="#000022" stroke-width="1.0" stroke-linejoin="round" stroke-linecap="butt" d="m44.798878 63.987907c-0.50932693 0.4186859 -2.2428284 1.8551178 -3.0559578 2.5121155c-0.8131256 0.6570053 -1.1496887 0.8222046 -1.822815 1.4298859c-0.6731224 0.6076813 -1.5921173 1.5919724 -2.2159271 2.2162094c-0.6238136 0.62423706 -1.2724533 1.2743378 -1.5269432 1.5292053" fill-rule="evenodd"/><path fill="#000022" d="m39.330505 72.90506c-0.5500183 -0.114845276 -2.9304352 -0.3441925 -3.3001022 -0.6890793c-0.36966705 -0.34487915 0.9017525 -1.150177 1.0821037 -1.3802185" fill-rule="evenodd"/><path stroke="#000022" stroke-width="1.0" stroke-linejoin="round" stroke-linecap="butt" d="m39.330505 72.90506c-0.5500183 -0.114845276 -2.9304352 -0.3441925 -3.3001022 -0.6890793c-0.36966705 -0.34487915 0.9017525 -1.150177 1.0821037 -1.3802185" fill-rule="evenodd"/><path fill="#000022" d="m44.600487 64.7763c0.016551971 -0.12312317 0.08275986 -0.6156082 0.09931183 -0.7387314" fill-rule="evenodd"/><path stroke="#000022" stroke-width="1.0" stroke-linejoin="round" stroke-linecap="butt" d="m44.600487 64.7763c0.016551971 -0.12312317 0.08275986 -0.6156082 0.09931183 -0.7387314" fill-rule="evenodd"/><path fill="#000022" d="m44.699802 64.03757c0 0 4.2373695 0.19657898 4.2373695 0.19657898c0 0 -4.2373695 -0.19657898 -4.2373695 -0.19657898z" fill-rule="evenodd"/><path stroke="#000022" stroke-width="1.0" stroke-linejoin="round" stroke-linecap="butt" d="m44.699802 64.03757c0 0 4.2373695 0.19657898 4.2373695 0.19657898c0 0 -4.2373695 -0.19657898 -4.2373695 -0.19657898z" fill-rule="evenodd"/><path fill="#000022" d="m37.916107 72.67371l0 0c-0.34500122 -0.2986145 -0.38235092 -0.8201523 -0.083423615 -1.1648865l6.728504 -7.7594833c0.14355087 -0.16554642 0.34703827 -0.26734924 0.5656967 -0.28300858c0.21865463 -0.015659332 0.4345703 0.056106567 0.6002464 0.19950485l2.4986649 2.162712c0.34500122 0.2986145 0.38235474 0.8201523 0.083423615 1.1648865l-6.728504 7.7594833c-0.29893112 0.3447342 -0.8209381 0.38211823 -1.1659431 0.08350372z" fill-rule="evenodd"/><path fill="#000022" d="m39.115578 69.74473l0 0c-0.13336563 -0.11886597 -0.14525986 -0.32347107 -0.026573181 -0.4569931l1.3339729 -1.5007248c0.056999207 -0.06411743 0.13710022 -0.10293579 0.22268677 -0.107910156c0.08558655 -0.0049819946 0.16964722 0.024291992 0.23369217 0.08137512l0.9658699 0.8608856c0.13336182 0.11886597 0.14525986 0.32347107 0.026573181 0.4569931l-1.3339767 1.5007172c-0.118686676 0.13352966 -0.3230133 0.14540863 -0.45637512 0.026542664z" fill-rule="evenodd"/><path stroke="#000022" stroke-width="1.0" stroke-linejoin="round" stroke-linecap="butt" d="m39.115578 69.74473l0 0c-0.13336563 -0.11886597 -0.14525986 -0.32347107 -0.026573181 -0.4569931l1.3339729 -1.5007248c0.056999207 -0.06411743 0.13710022 -0.10293579 0.22268677 -0.107910156c0.08558655 -0.0049819946 0.16964722 0.024291992 0.23369217 0.08137512l0.9658699 0.8608856c0.13336182 0.11886597 0.14525986 0.32347107 0.026573181 0.4569931l-1.3339767 1.5007172c-0.118686676 0.13352966 -0.3230133 0.14540863 -0.45637512 0.026542664z" fill-rule="evenodd"/><path fill="#000022" d="m45.72282 72.14634l0 0c-0.7334938 0 -1.3281097 -0.5946121 -1.3281097 -1.3281097l0 -5.3122864l0 0c0 -0.3522339 0.13992691 -0.6900406 0.38899612 -0.9391098c0.2490654 -0.24906921 0.5868759 -0.38899994 0.9391136 -0.38899994l27.170551 0c0.7334976 0 1.3281097 0.59461975 1.3281097 1.3281097l0 5.3122864c0 0.7334976 -0.5946121 1.3281097 -1.3281097 1.3281097z" fill-rule="evenodd"/><path stroke="#000022" stroke-width="1.0" stroke-linejoin="round" stroke-linecap="butt" d="m45.72282 72.14634l0 0c-0.7334938 0 -1.3281097 -0.5946121 -1.3281097 -1.3281097l0 -5.3122864l0 0c0 -0.3522339 0.13992691 -0.6900406 0.38899612 -0.9391098c0.2490654 -0.24906921 0.5868759 -0.38899994 0.9391136 -0.38899994l27.170551 0c0.7334976 0 1.3281097 0.59461975 1.3281097 1.3281097l0 5.3122864c0 0.7334976 -0.5946121 1.3281097 -1.3281097 1.3281097z" fill-rule="evenodd"/><path fill="#000022" d="m38.488476 72.88504l0 0c-0.22034073 0 -0.3989601 -0.17861938 -0.3989601 -0.39896393l0 -1.5957794l0 0c0 -0.10581207 0.04203415 -0.20729065 0.11685181 -0.28211212c0.07482147 -0.07481384 0.17629623 -0.11685181 0.2821083 -0.11685181l43.233578 0c0.22033691 0 0.3989563 0.17861938 0.3989563 0.39896393l0 1.5957794c0 0.22034454 -0.17861938 0.39896393 -0.3989563 0.39896393z" fill-rule="evenodd"/><path stroke="#000022" stroke-width="1.0" stroke-linejoin="round" stroke-linecap="butt" d="m38.488476 72.88504l0 0c-0.22034073 0 -0.3989601 -0.17861938 -0.3989601 -0.39896393l0 -1.5957794l0 0c0 -0.10581207 0.04203415 -0.20729065 0.11685181 -0.28211212c0.07482147 -0.07481384 0.17629623 -0.11685181 0.2821083 -0.11685181l43.233578 0c0.22033691 0 0.3989563 0.17861938 0.3989563 0.39896393l0 1.5957794c0 0.22034454 -0.17861938 0.39896393 -0.3989563 0.39896393z" fill-rule="evenodd"/><path fill="#305bce" d="m70.95077 72.146416l0 0c-0.7334976 0 -1.3281097 -0.5946121 -1.3281097 -1.3281097l0 -5.3122787l0 0c0 -0.35224152 0.1399231 -0.6900482 0.3889923 -0.93911743c0.24906921 -0.24906921 0.5868759 -0.3889923 0.93911743 -0.3889923l49.564247 0c0.7334976 0 1.3281174 0.5946121 1.3281174 1.3281097l0 5.3122787c0 0.7334976 -0.59461975 1.3281097 -1.3281174 1.3281097z" fill-rule="evenodd"/><path stroke="#305bce" stroke-width="1.0" stroke-linejoin="round" stroke-linecap="butt" d="m70.95077 72.146416l0 0c-0.7334976 0 -1.3281097 -0.5946121 -1.3281097 -1.3281097l0 -5.3122787l0 0c0 -0.35224152 0.1399231 -0.6900482 0.3889923 -0.93911743c0.24906921 -0.24906921 0.5868759 -0.3889923 0.93911743 -0.3889923l49.564247 0c0.7334976 0 1.3281174 0.5946121 1.3281174 1.3281097l0 5.3122787c0 0.7334976 -0.59461975 1.3281097 -1.3281174 1.3281097z" fill-rule="evenodd"/><path fill="#000022" d="m134.70267 29.059347l0 0c5.496765 4.2965145 6.885727 11.692629 3.1023712 16.519686q-0.21182251 0.2702446 -9.76091 -6.75795q-6.7345047 7.9591217 -7.042244 7.7185783l0 0c-5.4967575 -4.2965126 -6.8857346 -11.692631 -3.1023636 -16.519686l0 0c3.783371 -4.827055 11.3063965 -5.257143 16.803146 -0.9606285z" fill-rule="evenodd"/><path stroke="#000022" stroke-width="1.0" stroke-linejoin="round" stroke-linecap="butt" d="m134.70267 29.059347l0 0c5.496765 4.2965145 6.885727 11.692629 3.1023712 16.519686q-0.21182251 0.2702446 -9.76091 -6.75795q-6.7345047 7.9591217 -7.042244 7.7185783l0 0c-5.4967575 -4.2965126 -6.8857346 -11.692631 -3.1023636 -16.519686l0 0c3.783371 -4.827055 11.3063965 -5.257143 16.803146 -0.9606285z" fill-rule="evenodd"/><path fill="#000022" d="m121.41929 25.620672l0 0c7.4362717 -0.8349514 14.014519 3.4306831 14.692909 9.527559q0.037979126 0.3413353 -12.555954 2.100994q0.7360611 10.403442 0.3197403 10.450188l0 0c-7.4362793 0.8349495 -14.014519 -3.4306831 -14.692917 -9.527561l0 0c-0.67839813 -6.096874 4.7999496 -11.71623 12.236221 -12.55118z" fill-rule="evenodd"/><path stroke="#000022" stroke-width="1.0" stroke-linejoin="round" stroke-linecap="butt" d="m121.41929 25.620672l0 0c7.4362717 -0.8349514 14.014519 3.4306831 14.692909 9.527559q0.037979126 0.3413353 -12.555954 2.100994q0.7360611 10.403442 0.3197403 10.450188l0 0c-7.4362793 0.8349495 -14.014519 -3.4306831 -14.692917 -9.527561l0 0c-0.67839813 -6.096874 4.7999496 -11.71623 12.236221 -12.55118z" fill-rule="evenodd"/><path fill="#000022" d="m134.24367 65.23487l0 0c0 -1.2495499 1.01297 -2.2625122 2.2625122 -2.2625122l63.09703 0c0.6000519 0 1.1755219 0.2383728 1.5998383 0.66267395c0.42430115 0.42430878 0.66267395 0.9997864 0.66267395 1.5998383l0 9.049782c0 1.2495499 -1.01297 2.2625122 -2.2625122 2.2625122l-63.09703 0l0 0c-1.2495422 0 -2.2625122 -1.0129623 -2.2625122 -2.2625122z" fill-rule="evenodd"/><path stroke="#000022" stroke-width="1.0" stroke-linejoin="round" stroke-linecap="butt" d="m134.24367 65.23487l0 0c0 -1.2495499 1.01297 -2.2625122 2.2625122 -2.2625122l63.09703 0c0.6000519 0 1.1755219 0.2383728 1.5998383 0.66267395c0.42430115 0.42430878 0.66267395 0.9997864 0.66267395 1.5998383l0 9.049782c0 1.2495499 -1.01297 2.2625122 -2.2625122 2.2625122l-63.09703 0l0 0c-1.2495422 0 -2.2625122 -1.0129623 -2.2625122 -2.2625122z" fill-rule="evenodd"/><path fill="#305bce" d="m112.269966 65.25556l0 0c0 -1.2495499 1.0129623 -2.2625122 2.2625122 -2.2625122l63.097023 0c0.6000519 0 1.1755371 0.2383728 1.5998383 0.66267395c0.42430115 0.42430878 0.66267395 0.9997864 0.66267395 1.5998383l0 9.049782c0 1.2495499 -1.0129547 2.2625122 -2.2625122 2.2625122l-63.097023 0l0 0c-1.2495499 0 -2.2625122 -1.0129623 -2.2625122 -2.2625122z" fill-rule="evenodd"/><path stroke="#305bce" stroke-width="1.0" stroke-linejoin="round" stroke-linecap="butt" d="m112.269966 65.25556l0 0c0 -1.2495499 1.0129623 -2.2625122 2.2625122 -2.2625122l63.097023 0c0.6000519 0 1.1755371 0.2383728 1.5998383 0.66267395c0.42430115 0.42430878 0.66267395 0.9997864 0.66267395 1.5998383l0 9.049782c0 1.2495499 -1.0129547 2.2625122 -2.2625122 2.2625122l-63.097023 0l0 0c-1.2495499 0 -2.2625122 -1.0129623 -2.2625122 -2.2625122z" fill-rule="evenodd"/><path fill="#305bce" d="m71.182045 58.713737l72.062996 0l0 8.125984l-72.062996 0z" fill-rule="evenodd"/><path stroke="#305bce" stroke-width="1.0" stroke-linejoin="round" stroke-linecap="butt" d="m71.182045 58.713737l72.062996 0l0 8.125984l-72.062996 0z" fill-rule="evenodd"/><path fill="#000022" d="m112.60723 40.84709l0 0c0 -2.7049446 2.1927872 -4.8977356 4.8977356 -4.8977356l19.590355 0l0 0c1.2989655 0 2.5447235 0.5160103 3.4632263 1.4345131c0.9185028 0.9185028 1.4345093 2.1642609 1.4345093 3.4632225l0 21.763584c0 2.7049446 -2.1927948 4.8977394 -4.8977356 4.8977394l-19.590355 0c-2.7049484 0 -4.8977356 -2.1927948 -4.8977356 -4.8977394z" fill-rule="evenodd"/><path stroke="#000022" stroke-width="1.0" stroke-linejoin="round" stroke-linecap="butt" d="m112.60723 40.84709l0 0c0 -2.7049446 2.1927872 -4.8977356 4.8977356 -4.8977356l19.590355 0l0 0c1.2989655 0 2.5447235 0.5160103 3.4632263 1.4345131c0.9185028 0.9185028 1.4345093 2.1642609 1.4345093 3.4632225l0 21.763584c0 2.7049446 -2.1927948 4.8977394 -4.8977356 4.8977394l-19.590355 0c-2.7049484 0 -4.8977356 -2.1927948 -4.8977356 -4.8977394z" fill-rule="evenodd"/><path fill="#000022" d="m188.95033 63.75035l0 0c0 -0.87555695 0.70977783 -1.5853348 1.5853271 -1.5853348l11.978943 0c0.42045593 0 0.8236847 0.16702652 1.1210022 0.4643364c0.29730225 0.29730606 0.46432495 0.70054245 0.46432495 1.1209984l0 6.3411407c0 0.87555695 -0.70977783 1.5853348 -1.5853271 1.5853348l-11.978943 0c-0.8755493 0 -1.5853271 -0.70977783 -1.5853271 -1.5853348z" fill-rule="evenodd"/><path stroke="#000022" stroke-width="1.0" stroke-linejoin="round" stroke-linecap="butt" d="m188.95033 63.75035l0 0c0 -0.87555695 0.70977783 -1.5853348 1.5853271 -1.5853348l11.978943 0c0.42045593 0 0.8236847 0.16702652 1.1210022 0.4643364c0.29730225 0.29730606 0.46432495 0.70054245 0.46432495 1.1209984l0 6.3411407c0 0.87555695 -0.70977783 1.5853348 -1.5853271 1.5853348l-11.978943 0c-0.8755493 0 -1.5853271 -0.70977783 -1.5853271 -1.5853348z" fill-rule="evenodd"/><path fill="#000022" d="m45.39327 74.51828l74.22035 -48.12604l2.4414062E-4 1.18255615E-4l7.0077515 88.18892z" fill-rule="evenodd"/><path stroke="#000022" stroke-width="1.0" stroke-linejoin="round" stroke-linecap="butt" d="m45.39327 74.51828l74.22035 -48.12604l2.4414062E-4 1.18255615E-4l7.0077515 88.18892z" fill-rule="evenodd"/><path fill="#000022" d="m121.84243 25.930464l82.42519 43.85827l0 0l-82.42519 43.85826z" fill-rule="evenodd"/><path stroke="#000022" stroke-width="1.0" stroke-linejoin="round" stroke-linecap="butt" d="m121.84243 25.930464l82.42519 43.85827l0 0l-82.42519 43.85826z" fill-rule="evenodd"/><path fill="#36f1cd" d="m37.78216 162.18398l79.95224 -43.77881l2.0797653 1.2268982l0.45617676 91.21332z" fill-rule="evenodd"/><path stroke="#36f1cd" stroke-width="1.0" stroke-linejoin="round" stroke-linecap="butt" d="m37.78216 162.18398l79.95224 -43.77881l2.0797653 1.2268982l0.45617676 91.21332z" fill-rule="evenodd"/><path fill="#36f1cd" d="m36.82152 75.00656l80.62991 43.354332l0 0l-80.62991 43.354332z" fill-rule="evenodd"/><path stroke="#36f1cd" stroke-width="1.0" stroke-linejoin="round" stroke-linecap="butt" d="m36.82152 75.00656l80.62991 43.354332l0 0l-80.62991 43.354332z" fill-rule="evenodd"/></g></svg>