<svg version="1.1" viewBox="0.0 0.0 961.6351706036745 321.1102362204724" fill="none" stroke="none" stroke-linecap="square" stroke-miterlimit="10" xmlns:xlink="http://www.w3.org/1999/xlink" xmlns="http://www.w3.org/2000/svg"><clipPath id="p.0"><path d="m0 0l961.6352 0l0 321.11023l-961.6352 0l0 -321.11023z" clip-rule="nonzero"/></clipPath><g clip-path="url(#p.0)"><path fill="#000000" fill-opacity="0.0" d="m0 0l961.6352 0l0 321.11023l-961.6352 0z" fill-rule="evenodd"/><path fill="#000000" fill-opacity="0.0" d="m255.59055 24.11811l686.2992 0l0 252.81891l-686.2992 0z" fill-rule="evenodd"/><path fill="#000000" d="m275.01242 205.72755l0 -107.32812l19.625 0l0 91.99999l47.53125 0l0 15.328125l-67.15625 0zm117.610504 1.84375q-11.5 0 -20.40625 -4.90625q-8.890625 -4.90625 -13.953125 -13.796875q-5.046875 -8.90625 -5.046875 -20.546875q0 -11.8125 4.984375 -21.015625q4.984375 -9.203125 13.796875 -14.328125q8.8125 -5.1406174 20.78125 -5.1406174q11.1875 0 19.765625 4.9062424q8.59375 4.90625 13.421875 13.421875q4.828125 8.5 4.828125 18.9375q0 1.671875 -0.078125 3.515625q-0.078125 1.84375 -0.21875 3.84375l-57.8125 0q0.609375 8.890625 6.203125 13.953125q5.609375 5.046875 13.578125 5.046875q5.984375 0 10.046875 -2.671875q4.0625 -2.6875 6.046875 -6.984375l19.9375 0q-2.140625 7.203125 -7.125 13.109375q-4.984375 5.90625 -12.265625 9.28125q-7.28125 3.375 -16.484375 3.375zm0.15625 -63.78125q-7.21875 0 -12.734375 4.0625q-5.515625 4.0625 -7.046875 12.34375l37.875 0q-0.46875 -7.515625 -5.53125 -11.953125q-5.0625 -4.453125 -12.5625 -4.453125zm85.09732 39.25q-5.53125 0 -10.28125 -1.234375l-5.671875 5.671875q2.609375 1.390625 7.046875 2.3125q4.453125 0.90625 14.421875 1.828125q15.171875 1.390625 22.078125 7.21875q6.9062805 5.8125 6.9062805 16.09375q0 6.75 -3.6875305 12.796875q-3.6875 6.0625 -11.359375 9.8125q-7.65625 3.765625 -19.609375 3.765625q-16.25 0 -26.21875 -6.0625q-9.96875 -6.0625 -9.96875 -18.171875q0 -10.265625 9.96875 -17.78125q-3.078125 -1.375 -5.296875 -2.90625q-2.21875 -1.546875 -3.90625 -3.234375l0 -3.515625l13.34375 -14.109375q-8.890625 -7.828125 -8.890625 -20.09375q0 -7.65625 3.75 -13.9375q3.75 -6.296875 10.65625 -9.96875q6.90625 -3.6874924 16.71875 -3.6874924q6.4375 0 11.953125 1.8437424l28.828156 0l0 11.953125l-13.0312805 0.921875q3.0625 5.828125 3.0625 12.875q0 7.671875 -3.6875 13.96875q-3.671875 6.28125 -10.65625 9.96875q-6.96875 3.671875 -16.46875 3.671875zm0 -15.03125q5.96875 0 9.875 -3.21875q3.921875 -3.21875 3.921875 -9.203125q0 -5.984375 -3.921875 -9.203125q-3.90625 -3.21875 -9.875 -3.21875q-6.296875 0 -10.125 3.21875q-3.828125 3.21875 -3.828125 9.203125q0 5.984375 3.828125 9.203125q3.828125 3.21875 10.125 3.21875zm-18.40625 47.078125q0 5.671875 5.28125 8.5q5.296875 2.84375 12.96875 2.84375q7.359375 0 11.953125 -3.0q4.609375 -2.984375 4.609375 -8.046875q0 -4.140625 -3.0 -6.90625q-2.984375 -2.75 -11.875 -3.359375q-6.296875 -0.46875 -11.65625 -1.390625q-4.453125 2.453125 -6.375 5.359375q-1.90625 2.921875 -1.90625 6.0zm99.66562 -7.515625q-9.8125 0 -16.109375 -3.140625q-6.28125 -3.15625 -9.34375 -8.359375q-3.0625 -5.21875 -3.0625 -11.5q0 -10.578125 8.265625 -17.171875q8.28125 -6.59375 24.84375 -6.59375l19.328125 0l0 -1.84375q0 -7.8125 -4.453125 -11.484375q-4.4375 -3.6875 -11.03125 -3.6875q-5.984375 0 -10.4375 2.84375q-4.4375 2.828125 -5.515625 8.34375l-19.171875 0q0.765625 -8.28125 5.59375 -14.40625q4.84375 -6.140625 12.5 -9.4375q7.671875 -3.2968674 17.171875 -3.2968674q16.265625 0 25.609375 8.124992q9.359375 8.125 9.359375 23.0l0 46.765625l-16.71875 0l-1.84375 -12.265625q-3.359375 6.125 -9.421875 10.125q-6.0625 3.984375 -15.5625 3.984375zm4.4375 -15.34375q8.4375 0 13.109375 -5.515625q4.6875 -5.515625 5.90625 -13.640625l-16.703125 0q-7.828125 0 -11.203125 2.84375q-3.375 2.828125 -3.375 6.96875q0 4.4375 3.375 6.890625q3.375 2.453125 8.890625 2.453125zm57.814087 13.5l0 -110.39062l19.625 0l0 110.39062l-19.625 0zm84.79016 1.84375q-8.59375 0 -15.03125 -3.21875q-6.4375 -3.21875 -10.421875 -9.046875l-2.140625 10.421875l-17.484375 0l0 -110.39062l19.625 0l0 45.218742q3.671875 -5.046875 9.734375 -8.875q6.0625 -3.8437424 15.71875 -3.8437424q10.734375 0 19.15625 5.2187424q8.4375 5.203125 13.34375 14.25q4.90625 9.046875 4.90625 20.546875q0 11.5 -4.90625 20.46875q-4.90625 8.96875 -13.34375 14.109375q-8.421875 5.140625 -19.15625 5.140625zm-4.140625 -17.171875q9.359375 0 15.484375 -6.28125q6.140625 -6.296875 6.140625 -16.265625q0 -9.96875 -6.140625 -16.40625q-6.125 -6.4375 -15.484375 -6.4375q-9.5 0 -15.5625 6.375q-6.0625 6.359375 -6.0625 16.3125q0 9.96875 6.0625 16.34375q6.0625 6.359375 15.5625 6.359375zm95.516846 17.171875q-11.03125 0 -19.859375 -5.0625q-8.8125 -5.0625 -13.953125 -14.03125q-5.125 -8.96875 -5.125 -20.78125q0 -11.796875 5.203125 -20.765625q5.21875 -8.96875 14.03125 -14.03125q8.828125 -5.0624924 19.859375 -5.0624924q10.890625 0 19.703125 5.0624924q8.8125 5.0625 13.953125 14.03125q5.140625 8.96875 5.140625 20.765625q0 11.8125 -5.140625 20.78125q-5.140625 8.96875 -14.03125 14.03125q-8.890625 5.0625 -19.78125 5.0625zm0 -17.015625q7.671875 0 13.34375 -5.75q5.671875 -5.75 5.671875 -17.109375q0 -11.34375 -5.671875 -17.09375q-5.671875 -5.75 -13.1875 -5.75q-7.8125 0 -13.421875 5.75q-5.59375 5.75 -5.59375 17.09375q0 11.359375 5.59375 17.109375q5.609375 5.75 13.265625 5.75z" fill-rule="nonzero"/><path fill="#000000" d="m846.7832 205.72755l27.59375 -38.03125l-27.59375 -38.015625l21.0 0l19.3125 26.984375l19.171875 -26.984375l21.15625 0l-27.75 38.015625l27.75 38.03125l-21.15625 0l-19.171875 -26.984375l-19.3125 26.984375l-21.0 0z" fill-rule="nonzero"/><path fill="#000000" fill-opacity="0.0" d="m145.65065 158.61008c0 21.858276 0.01574707 32.7874 0.03149414 43.716537c0.01574707 10.929138 0.03149414 21.858276 0.03149414 43.716537" fill-rule="evenodd"/><path stroke="#36f1cd" stroke-width="1.0" stroke-linejoin="round" stroke-linecap="butt" d="m145.65065 158.61008c0 21.858276 0.01574707 32.7874 0.03149414 43.716537c0.01574707 10.929138 0.03149414 21.858276 0.03149414 43.716537" fill-rule="evenodd"/><path fill="#000000" fill-opacity="0.0" d="m134.84251 254.32545l-72.06299 -39.74803" fill-rule="evenodd"/><path stroke="#f887bc" stroke-width="1.0" stroke-linejoin="round" stroke-linecap="butt" d="m134.84251 254.32545l-72.06299 -39.74803" fill-rule="evenodd"/><path fill="#000000" fill-opacity="0.0" d="m51.703445 194.67471l0 -69.41731" fill-rule="evenodd"/><path stroke="#36f1cd" stroke-width="1.0" stroke-linejoin="round" stroke-linecap="butt" d="m51.703445 194.67471l0 -69.41731" fill-rule="evenodd"/><path fill="#000000" fill-opacity="0.0" d="m55.587124 113.861374l90.425186 44.944885" fill-rule="evenodd"/><path stroke="#f887bc" stroke-width="1.0" stroke-linejoin="round" stroke-linecap="butt" d="m55.587124 113.861374l90.425186 44.944885" fill-rule="evenodd"/><path fill="#000000" fill-opacity="0.0" d="m51.67448 125.28385c0.0410347 -0.36971283 0.10655594 -1.3888321 0.246212 -2.218277c0.13965988 -0.82943726 0.32897568 -1.8140793 0.59174347 -2.7583618c0.2627678 -0.94429016 0.6648483 -2.1189575 0.98485947 -2.9073563c0.32000732 -0.78839874 0.58208466 -1.2481308 0.93519974 -1.8230438c0.35311508 -0.57492065 0.9862366 -1.3553925 1.1834831 -1.6264648" fill-rule="evenodd"/><path stroke="#36f1cd" stroke-width="1.0" stroke-linejoin="round" stroke-linecap="butt" d="m51.67448 125.28385c0.0410347 -0.36971283 0.10655594 -1.3888321 0.246212 -2.218277c0.13965988 -0.82943726 0.32897568 -1.8140793 0.59174347 -2.7583618c0.2627678 -0.94429016 0.6648483 -2.1189575 0.98485947 -2.9073563c0.32000732 -0.78839874 0.58208466 -1.2481308 0.93519974 -1.8230438c0.35311508 -0.57492065 0.9862366 -1.3553925 1.1834831 -1.6264648" fill-rule="evenodd"/><path fill="#36f1cd" d="m132.06252 253.3479l0 0c-4.461769 -2.4961395 -6.1045685 -8.037949 -3.6692963 -12.377945q0.13633728 -0.24298096 7.851837 3.7542267q4.386551 -7.232559 4.6363525 -7.092804l0 0c4.4617615 2.4961395 6.1045685 8.037949 3.6692963 12.377945l0 0c-2.4352722 4.3399963 -8.026428 5.834732 -12.48819 3.3385773z" fill-rule="evenodd"/><path stroke="#36f1cd" stroke-width="1.0" stroke-linejoin="round" stroke-linecap="butt" d="m132.06252 253.3479l0 0c-4.461769 -2.4961395 -6.1045685 -8.037949 -3.6692963 -12.377945q0.13633728 -0.24298096 7.851837 3.7542267q4.386551 -7.232559 4.6363525 -7.092804l0 0c4.4617615 2.4961395 6.1045685 8.037949 3.6692963 12.377945l0 0c-2.4352722 4.3399963 -8.026428 5.834732 -12.48819 3.3385773z" fill-rule="evenodd"/><path fill="#36f1cd" d="m55.198486 184.17279l0 0c4.774872 -2.5396423 12.579926 2.797699 17.433075 11.921265q0.27170563 0.51078796 -7.5676117 5.3356323q7.9766617 15.640289 7.709343 15.782471l0 0c-4.774872 2.5396423 -12.579926 -2.7976837 -17.433075 -11.921249l0 0c-4.8531456 -9.123581 -4.916603 -18.578476 -0.14173126 -21.118118z" fill-rule="evenodd"/><path stroke="#36f1cd" stroke-width="1.0" stroke-linejoin="round" stroke-linecap="butt" d="m55.198486 184.17279l0 0c4.774872 -2.5396423 12.579926 2.797699 17.433075 11.921265q0.27170563 0.51078796 -7.5676117 5.3356323q7.9766617 15.640289 7.709343 15.782471l0 0c-4.774872 2.5396423 -12.579926 -2.7976837 -17.433075 -11.921249l0 0c-4.8531456 -9.123581 -4.916603 -18.578476 -0.14173126 -21.118118z" fill-rule="evenodd"/><path fill="#36f1cd" d="m120.17987 159.39427l25.669296 0l0 83.086624l-25.669296 0z" fill-rule="evenodd"/><path fill="#36f1cd" d="m64.286125 215.73967l12.440941 -22.48819l68.409454 37.88977l-12.4409485 22.48819z" fill-rule="evenodd"/><path stroke="#36f1cd" stroke-width="1.0" stroke-linejoin="round" stroke-linecap="butt" d="m64.286125 215.73967l12.440941 -22.48819l68.409454 37.88977l-12.4409485 22.48819z" fill-rule="evenodd"/><path fill="#36f1cd" d="m51.97448 142.05522l11.968502 -23.874023l81.51181 40.818893l-11.968491 23.874023z" fill-rule="evenodd"/><path stroke="#36f1cd" stroke-width="1.0" stroke-linejoin="round" stroke-linecap="butt" d="m51.97448 142.05522l11.968502 -23.874023l81.51181 40.818893l-11.968491 23.874023z" fill-rule="evenodd"/><path fill="#36f1cd" d="m51.65172 142.47928l51.874016 0l0 50.803146l-51.874016 0z" fill-rule="evenodd"/><path stroke="#36f1cd" stroke-width="1.0" stroke-linejoin="round" stroke-linecap="butt" d="m51.65172 142.47928l51.874016 0l0 50.803146l-51.874016 0z" fill-rule="evenodd"/><path fill="#36f1cd" d="m62.79789 158.8025l51.874016 0l0 50.803146l-51.874016 0z" fill-rule="evenodd"/><path stroke="#36f1cd" stroke-width="1.0" stroke-linejoin="round" stroke-linecap="butt" d="m62.79789 158.8025l51.874016 0l0 50.803146l-51.874016 0z" fill-rule="evenodd"/><path fill="#36f1cd" d="m78.78572 167.97488l51.874023 0l0 50.803146l-51.874023 0z" fill-rule="evenodd"/><path stroke="#36f1cd" stroke-width="1.0" stroke-linejoin="round" stroke-linecap="butt" d="m78.78572 167.97488l51.874023 0l0 50.803146l-51.874023 0z" fill-rule="evenodd"/><path fill="#36f1cd" d="m63.28304 117.85001l-10.58268 22.173225l3.6535454 -25.480309z" fill-rule="evenodd"/><path stroke="#36f1cd" stroke-width="1.0" stroke-linejoin="round" stroke-linecap="butt" d="m63.28304 117.85001l-10.58268 22.173225l3.6535454 -25.480309z" fill-rule="evenodd"/><path fill="#36f1cd" d="m51.81104 123.97106l15.149609 0l0 18.267723l-15.149609 0z" fill-rule="evenodd"/><path stroke="#36f1cd" stroke-width="1.0" stroke-linejoin="round" stroke-linecap="butt" d="m51.81104 123.97106l15.149609 0l0 18.267723l-15.149609 0z" fill-rule="evenodd"/><path fill="#36f1cd" d="m52.315895 122.144035l4.4409447 0l0 3.6535416l-4.4409447 0z" fill-rule="evenodd"/><path stroke="#36f1cd" stroke-width="1.0" stroke-linejoin="round" stroke-linecap="butt" d="m52.315895 122.144035l4.4409447 0l0 3.6535416l-4.4409447 0z" fill-rule="evenodd"/><path fill="#36f1cd" d="m55.717407 113.907166l2.2677155 1.2283478l-2.582676 4.661415l-2.2677155 -1.2283478z" fill-rule="evenodd"/><path stroke="#36f1cd" stroke-width="1.0" stroke-linejoin="round" stroke-linecap="butt" d="m55.717407 113.907166l2.2677155 1.2283478l-2.582676 4.661415l-2.2677155 -1.2283478z" fill-rule="evenodd"/><path fill="#36f1cd" d="m52.956924 118.94727l4.4409447 0l0 3.6535416l-4.4409447 0z" fill-rule="evenodd"/><path stroke="#36f1cd" stroke-width="1.0" stroke-linejoin="round" stroke-linecap="butt" d="m52.956924 118.94727l4.4409447 0l0 3.6535416l-4.4409447 0z" fill-rule="evenodd"/><path fill="#000022" d="m146.13864 113.84797l0 44.755898l-90.645676 -44.755898z" fill-rule="evenodd"/><path stroke="#000022" stroke-width="1.0" stroke-linejoin="round" stroke-linecap="butt" d="m146.13864 113.84797l0 44.755898l-90.645676 -44.755898z" fill-rule="evenodd"/><path fill="#000022" d="m146.13864 118.19443l0 40.40944l79.2126 -40.40944z" fill-rule="evenodd"/><path stroke="#000022" stroke-width="1.0" stroke-linejoin="round" stroke-linecap="butt" d="m146.13864 118.19443l0 40.40944l79.2126 -40.40944z" fill-rule="evenodd"/><path fill="#000022" d="m135.64584 105.54097l0 -36.566933l-70.99213 36.566933z" fill-rule="evenodd"/><path stroke="#000022" stroke-width="1.0" stroke-linejoin="round" stroke-linecap="butt" d="m135.64584 105.54097l0 -36.566933l-70.99213 36.566933z" fill-rule="evenodd"/><path fill="#000022" d="m151.63412 103.99766l0 -35.02362l72.063 35.02362z" fill-rule="evenodd"/><path stroke="#000022" stroke-width="1.0" stroke-linejoin="round" stroke-linecap="butt" d="m151.63412 103.99766l0 -35.02362l72.063 35.02362z" fill-rule="evenodd"/><path fill="#000022" d="m214.76608 118.99046l0 0c-4.540039 -2.5483398 -6.316803 -8.005531 -3.9685059 -12.188972q0.13146973 -0.23421478 7.975052 3.860405q4.24321 -6.963707 4.4973907 -6.8210373l0 0c4.540039 2.5483398 6.316803 8.005524 3.9685059 12.188972l0 0c-2.348297 4.183449 -7.9324036 5.508972 -12.472443 2.9606323z" fill-rule="evenodd"/><path stroke="#000022" stroke-width="1.0" stroke-linejoin="round" stroke-linecap="butt" d="m214.76608 118.99046l0 0c-4.540039 -2.5483398 -6.316803 -8.005531 -3.9685059 -12.188972q0.13146973 -0.23421478 7.975052 3.860405q4.24321 -6.963707 4.4973907 -6.8210373l0 0c4.540039 2.5483398 6.316803 8.005524 3.9685059 12.188972l0 0c-2.348297 4.183449 -7.9324036 5.508972 -12.472443 2.9606323z" fill-rule="evenodd"/><path fill="#ff00ff" d="m151.74138 71.17985l0 0c5.496765 4.2965164 6.885742 11.692627 3.1023712 16.519684q-0.21182251 0.2702484 -9.76091 -6.75795q-6.734497 7.9591217 -7.0422363 7.718582l0 0c-5.496765 -4.2965164 -6.885742 -11.692627 -3.1023712 -16.519684l0 0c3.783371 -4.827057 11.3063965 -5.2571487 16.803146 -0.9606323z" fill-rule="evenodd"/><path stroke="#305bce" stroke-width="1.0" stroke-linejoin="round" stroke-linecap="butt" d="m151.74138 71.17985l0 0c5.496765 4.2965164 6.885742 11.692627 3.1023712 16.519684q-0.21182251 0.2702484 -9.76091 -6.75795q-6.734497 7.9591217 -7.0422363 7.718582l0 0c-5.496765 -4.2965164 -6.885742 -11.692627 -3.1023712 -16.519684l0 0c3.783371 -4.827057 11.3063965 -5.2571487 16.803146 -0.9606323z" fill-rule="evenodd"/><path fill="#000022" d="m65.00542 105.810455c-1.436943 1.3222809 -8.129215 6.989029 -8.621643 7.9336624c-0.49243164 0.9446335 4.722557 -1.8882294 5.6670685 -2.2658691" fill-rule="evenodd"/><path stroke="#000022" stroke-width="1.0" stroke-linejoin="round" stroke-linecap="butt" d="m65.00542 105.810455c-1.436943 1.3222809 -8.129215 6.989029 -8.621643 7.9336624c-0.49243164 0.9446335 4.722557 -1.8882294 5.6670685 -2.2658691" fill-rule="evenodd"/><path fill="#000022" d="m64.41567 105.61389c-0.5093231 0.4186859 -2.2428246 1.8551178 -3.055954 2.5121155c-0.8131294 0.6570053 -1.1496887 0.8222046 -1.822815 1.4298859c-0.6731224 0.6076813 -1.5921173 1.5919724 -2.2159271 2.2162094c-0.6238136 0.62423706 -1.2724533 1.2743378 -1.5269432 1.5292053" fill-rule="evenodd"/><path stroke="#000022" stroke-width="1.0" stroke-linejoin="round" stroke-linecap="butt" d="m64.41567 105.61389c-0.5093231 0.4186859 -2.2428246 1.8551178 -3.055954 2.5121155c-0.8131294 0.6570053 -1.1496887 0.8222046 -1.822815 1.4298859c-0.6731224 0.6076813 -1.5921173 1.5919724 -2.2159271 2.2162094c-0.6238136 0.62423706 -1.2724533 1.2743378 -1.5269432 1.5292053" fill-rule="evenodd"/><path fill="#000022" d="m58.947304 114.531044c-0.5500183 -0.114845276 -2.9304352 -0.3441925 -3.3001022 -0.6890793c-0.36966705 -0.34487915 0.9017525 -1.150177 1.0820999 -1.3802185" fill-rule="evenodd"/><path stroke="#000022" stroke-width="1.0" stroke-linejoin="round" stroke-linecap="butt" d="m58.947304 114.531044c-0.5500183 -0.114845276 -2.9304352 -0.3441925 -3.3001022 -0.6890793c-0.36966705 -0.34487915 0.9017525 -1.150177 1.0820999 -1.3802185" fill-rule="evenodd"/><path fill="#000022" d="m64.217285 106.40228c0.016548157 -0.12312317 0.08275604 -0.6156082 0.09931183 -0.7387314" fill-rule="evenodd"/><path stroke="#000022" stroke-width="1.0" stroke-linejoin="round" stroke-linecap="butt" d="m64.217285 106.40228c0.016548157 -0.12312317 0.08275604 -0.6156082 0.09931183 -0.7387314" fill-rule="evenodd"/><path fill="#000022" d="m64.3166 105.66355c0 0 4.2373734 0.19657898 4.2373734 0.19657898c0 0 -4.2373734 -0.19657898 -4.2373734 -0.19657898z" fill-rule="evenodd"/><path stroke="#000022" stroke-width="1.0" stroke-linejoin="round" stroke-linecap="butt" d="m64.3166 105.66355c0 0 4.2373734 0.19657898 4.2373734 0.19657898c0 0 -4.2373734 -0.19657898 -4.2373734 -0.19657898z" fill-rule="evenodd"/><path fill="#000022" d="m57.532906 114.2997l0 0c-0.34500122 -0.2986145 -0.38235474 -0.8201523 -0.083423615 -1.1648865l6.728504 -7.7594833c0.14355469 -0.16555023 0.34703827 -0.26734924 0.5656967 -0.28300476c0.21865082 -0.015663147 0.4345703 0.056098938 0.60025024 0.19950104l2.4986572 2.162712c0.34500885 0.2986145 0.38235474 0.8201523 0.08342743 1.1648865l-6.728504 7.7594833c-0.29893112 0.3447342 -0.8209419 0.38211823 -1.1659431 0.08350372z" fill-rule="evenodd"/><path fill="#000022" d="m58.732372 111.37071l0 0c-0.13336182 -0.11886597 -0.14525986 -0.32347107 -0.026569366 -0.4569931l1.3339729 -1.5007248c0.05699539 -0.06411743 0.13710022 -0.10293579 0.22268677 -0.107910156c0.08558655 -0.0049819946 0.16964722 0.024291992 0.23369217 0.08137512l0.9658699 0.8608856c0.13336182 0.11886597 0.14525986 0.32347107 0.026573181 0.4569931l-1.3339767 1.5007172c-0.118686676 0.13352966 -0.3230133 0.14540863 -0.45637894 0.026542664z" fill-rule="evenodd"/><path stroke="#000022" stroke-width="1.0" stroke-linejoin="round" stroke-linecap="butt" d="m58.732372 111.37071l0 0c-0.13336182 -0.11886597 -0.14525986 -0.32347107 -0.026569366 -0.4569931l1.3339729 -1.5007248c0.05699539 -0.06411743 0.13710022 -0.10293579 0.22268677 -0.107910156c0.08558655 -0.0049819946 0.16964722 0.024291992 0.23369217 0.08137512l0.9658699 0.8608856c0.13336182 0.11886597 0.14525986 0.32347107 0.026573181 0.4569931l-1.3339767 1.5007172c-0.118686676 0.13352966 -0.3230133 0.14540863 -0.45637894 0.026542664z" fill-rule="evenodd"/><path fill="#000022" d="m65.33962 113.77232l0 0c-0.7334976 0 -1.3281174 -0.5946121 -1.3281174 -1.3281097l0 -5.3122864l0 0c0 -0.3522339 0.13993073 -0.6900406 0.38899994 -0.9391098c0.24906921 -0.24906921 0.5868759 -0.38899994 0.93911743 -0.38899994l27.170547 0c0.7334976 0 1.3281097 0.59461975 1.3281097 1.3281097l0 5.3122864c0 0.7334976 -0.5946121 1.3281097 -1.3281097 1.3281097z" fill-rule="evenodd"/><path stroke="#000022" stroke-width="1.0" stroke-linejoin="round" stroke-linecap="butt" d="m65.33962 113.77232l0 0c-0.7334976 0 -1.3281174 -0.5946121 -1.3281174 -1.3281097l0 -5.3122864l0 0c0 -0.3522339 0.13993073 -0.6900406 0.38899994 -0.9391098c0.24906921 -0.24906921 0.5868759 -0.38899994 0.93911743 -0.38899994l27.170547 0c0.7334976 0 1.3281097 0.59461975 1.3281097 1.3281097l0 5.3122864c0 0.7334976 -0.5946121 1.3281097 -1.3281097 1.3281097z" fill-rule="evenodd"/><path fill="#000022" d="m58.10527 114.511024l0 0c-0.22033691 0 -0.3989563 -0.17861938 -0.3989563 -0.39896393l0 -1.5957794l0 0c0 -0.10581207 0.04203415 -0.20729065 0.11685181 -0.28211212c0.07481766 -0.07481384 0.17629623 -0.11685181 0.2821045 -0.11685181l43.23358 0c0.22033691 0 0.3989563 0.17861938 0.3989563 0.39896393l0 1.5957794c0 0.22034454 -0.17861938 0.39896393 -0.3989563 0.39896393z" fill-rule="evenodd"/><path stroke="#000022" stroke-width="1.0" stroke-linejoin="round" stroke-linecap="butt" d="m58.10527 114.511024l0 0c-0.22033691 0 -0.3989563 -0.17861938 -0.3989563 -0.39896393l0 -1.5957794l0 0c0 -0.10581207 0.04203415 -0.20729065 0.11685181 -0.28211212c0.07481766 -0.07481384 0.17629623 -0.11685181 0.2821045 -0.11685181l43.23358 0c0.22033691 0 0.3989563 0.17861938 0.3989563 0.39896393l0 1.5957794c0 0.22034454 -0.17861938 0.39896393 -0.3989563 0.39896393z" fill-rule="evenodd"/><path fill="#305bce" d="m90.567566 113.7724l0 0c-0.7334976 0 -1.3281097 -0.5946121 -1.3281097 -1.3281097l0 -5.3122787l0 0c0 -0.35224152 0.1399231 -0.6900482 0.3889923 -0.93911743c0.24906921 -0.24906921 0.5868759 -0.3889923 0.93911743 -0.3889923l49.564255 0c0.73349 0 1.3281097 0.5946121 1.3281097 1.3281097l0 5.3122787c0 0.7334976 -0.59461975 1.3281097 -1.3281097 1.3281097z" fill-rule="evenodd"/><path stroke="#305bce" stroke-width="1.0" stroke-linejoin="round" stroke-linecap="butt" d="m90.567566 113.7724l0 0c-0.7334976 0 -1.3281097 -0.5946121 -1.3281097 -1.3281097l0 -5.3122787l0 0c0 -0.35224152 0.1399231 -0.6900482 0.3889923 -0.93911743c0.24906921 -0.24906921 0.5868759 -0.3889923 0.93911743 -0.3889923l49.564255 0c0.73349 0 1.3281097 0.5946121 1.3281097 1.3281097l0 5.3122787c0 0.7334976 -0.59461975 1.3281097 -1.3281097 1.3281097z" fill-rule="evenodd"/><path fill="#000022" d="m154.31947 70.68533l0 0c5.49675 4.296509 6.885727 11.692627 3.102356 16.519684q-0.21180725 0.27024078 -9.76091 -6.75795q-6.734497 7.9591217 -7.0422363 7.718582l0 0c-5.49675 -4.2965164 -6.885727 -11.692635 -3.1023712 -16.519691l0 0c3.783371 -4.8270493 11.3063965 -5.257141 16.803162 -0.9606247z" fill-rule="evenodd"/><path stroke="#000022" stroke-width="1.0" stroke-linejoin="round" stroke-linecap="butt" d="m154.31947 70.68533l0 0c5.49675 4.296509 6.885727 11.692627 3.102356 16.519684q-0.21180725 0.27024078 -9.76091 -6.75795q-6.734497 7.9591217 -7.0422363 7.718582l0 0c-5.49675 -4.2965164 -6.885727 -11.692635 -3.1023712 -16.519691l0 0c3.783371 -4.8270493 11.3063965 -5.257141 16.803162 -0.9606247z" fill-rule="evenodd"/><path fill="#000022" d="m141.03609 67.24666l0 0c7.4362793 -0.8349533 14.014511 3.4306793 14.692917 9.527557q0.037979126 0.3413391 -12.555954 2.100998q0.73605347 10.403435 0.31973267 10.45018l0 0c-7.4362793 0.8349533 -14.014511 -3.4306793 -14.692917 -9.527557l0 0c-0.6783905 -6.096878 4.799942 -11.716232 12.236221 -12.551178z" fill-rule="evenodd"/><path stroke="#000022" stroke-width="1.0" stroke-linejoin="round" stroke-linecap="butt" d="m141.03609 67.24666l0 0c7.4362793 -0.8349533 14.014511 3.4306793 14.692917 9.527557q0.037979126 0.3413391 -12.555954 2.100998q0.73605347 10.403435 0.31973267 10.45018l0 0c-7.4362793 0.8349533 -14.014511 -3.4306793 -14.692917 -9.527557l0 0c-0.6783905 -6.096878 4.799942 -11.716232 12.236221 -12.551178z" fill-rule="evenodd"/><path fill="#000022" d="m153.86047 106.860855l0 0c0 -1.2495499 1.0129547 -2.2625122 2.2625122 -2.2625122l63.097015 0c0.6000519 0 1.1755371 0.2383728 1.5998383 0.66267395c0.42430115 0.42430878 0.66267395 0.9997864 0.66267395 1.5998383l0 9.049782c0 1.2495499 -1.0129547 2.2625122 -2.2625122 2.2625122l-63.097015 0l0 0c-1.2495575 0 -2.2625122 -1.0129623 -2.2625122 -2.2625122z" fill-rule="evenodd"/><path stroke="#000022" stroke-width="1.0" stroke-linejoin="round" stroke-linecap="butt" d="m153.86047 106.860855l0 0c0 -1.2495499 1.0129547 -2.2625122 2.2625122 -2.2625122l63.097015 0c0.6000519 0 1.1755371 0.2383728 1.5998383 0.66267395c0.42430115 0.42430878 0.66267395 0.9997864 0.66267395 1.5998383l0 9.049782c0 1.2495499 -1.0129547 2.2625122 -2.2625122 2.2625122l-63.097015 0l0 0c-1.2495575 0 -2.2625122 -1.0129623 -2.2625122 -2.2625122z" fill-rule="evenodd"/><path fill="#305bce" d="m131.88676 106.881546l0 0c0 -1.2495499 1.01297 -2.2625122 2.2625122 -2.2625122l63.09703 0c0.6000519 0 1.1755219 0.2383728 1.5998383 0.66267395c0.42430115 0.42430878 0.66267395 0.9997864 0.66267395 1.5998383l0 9.049782c0 1.2495499 -1.01297 2.2625122 -2.2625122 2.2625122l-63.09703 0l0 0c-1.2495422 0 -2.2625122 -1.0129623 -2.2625122 -2.2625122z" fill-rule="evenodd"/><path stroke="#305bce" stroke-width="1.0" stroke-linejoin="round" stroke-linecap="butt" d="m131.88676 106.881546l0 0c0 -1.2495499 1.01297 -2.2625122 2.2625122 -2.2625122l63.09703 0c0.6000519 0 1.1755219 0.2383728 1.5998383 0.66267395c0.42430115 0.42430878 0.66267395 0.9997864 0.66267395 1.5998383l0 9.049782c0 1.2495499 -1.01297 2.2625122 -2.2625122 2.2625122l-63.09703 0l0 0c-1.2495422 0 -2.2625122 -1.0129623 -2.2625122 -2.2625122z" fill-rule="evenodd"/><path fill="#305bce" d="m90.79884 100.33972l72.06299 0l0 8.125984l-72.06299 0z" fill-rule="evenodd"/><path stroke="#305bce" stroke-width="1.0" stroke-linejoin="round" stroke-linecap="butt" d="m90.79884 100.33972l72.06299 0l0 8.125984l-72.06299 0z" fill-rule="evenodd"/><path fill="#000022" d="m132.22403 82.473076l0 0c0 -2.7049408 2.1927948 -4.8977356 4.8977356 -4.8977356l19.590347 0l0 0c1.2989655 0 2.5447235 0.5160141 3.4632263 1.4345169c0.9185028 0.9185028 1.4345093 2.1642609 1.4345093 3.4632187l0 21.763588c0 2.7049408 -2.1927795 4.8977356 -4.8977356 4.8977356l-19.590347 0c-2.7049408 0 -4.8977356 -2.1927948 -4.8977356 -4.8977356z" fill-rule="evenodd"/><path stroke="#000022" stroke-width="1.0" stroke-linejoin="round" stroke-linecap="butt" d="m132.22403 82.473076l0 0c0 -2.7049408 2.1927948 -4.8977356 4.8977356 -4.8977356l19.590347 0l0 0c1.2989655 0 2.5447235 0.5160141 3.4632263 1.4345169c0.9185028 0.9185028 1.4345093 2.1642609 1.4345093 3.4632187l0 21.763588c0 2.7049408 -2.1927795 4.8977356 -4.8977356 4.8977356l-19.590347 0c-2.7049408 0 -4.8977356 -2.1927948 -4.8977356 -4.8977356z" fill-rule="evenodd"/><path fill="#000022" d="m208.56712 105.376335l0 0c0 -0.87555695 0.70977783 -1.5853348 1.5853271 -1.5853348l11.978943 0c0.42045593 0 0.82369995 0.16703033 1.1210022 0.46433258c0.29730225 0.29730988 0.4643402 0.70054626 0.4643402 1.1210022l0 6.3411407c0 0.87555695 -0.70977783 1.5853348 -1.5853424 1.5853348l-11.978943 0c-0.8755493 0 -1.5853271 -0.70977783 -1.5853271 -1.5853348z" fill-rule="evenodd"/><path stroke="#000022" stroke-width="1.0" stroke-linejoin="round" stroke-linecap="butt" d="m208.56712 105.376335l0 0c0 -0.87555695 0.70977783 -1.5853348 1.5853271 -1.5853348l11.978943 0c0.42045593 0 0.82369995 0.16703033 1.1210022 0.46433258c0.29730225 0.29730988 0.4643402 0.70054626 0.4643402 1.1210022l0 6.3411407c0 0.87555695 -0.70977783 1.5853348 -1.5853424 1.5853348l-11.978943 0c-0.8755493 0 -1.5853271 -0.70977783 -1.5853271 -1.5853348z" fill-rule="evenodd"/><path fill="#000022" d="m65.01006 116.144264l74.22036 -48.126038l2.2888184E-4 1.1444092E-4l7.0077667 88.18892z" fill-rule="evenodd"/><path stroke="#000022" stroke-width="1.0" stroke-linejoin="round" stroke-linecap="butt" d="m65.01006 116.144264l74.22036 -48.126038l2.2888184E-4 1.1444092E-4l7.0077667 88.18892z" fill-rule="evenodd"/><path fill="#000022" d="m141.45923 67.55645l82.4252 43.85827l0 0l-82.4252 43.85826z" fill-rule="evenodd"/><path stroke="#000022" stroke-width="1.0" stroke-linejoin="round" stroke-linecap="butt" d="m141.45923 67.55645l82.4252 43.85827l0 0l-82.4252 43.85826z" fill-rule="evenodd"/><path fill="#36f1cd" d="m57.39896 203.80995l79.95224 -43.77881l2.079773 1.2268982l0.45617676 91.21333z" fill-rule="evenodd"/><path stroke="#36f1cd" stroke-width="1.0" stroke-linejoin="round" stroke-linecap="butt" d="m57.39896 203.80995l79.95224 -43.77881l2.079773 1.2268982l0.45617676 91.21333z" fill-rule="evenodd"/><path fill="#36f1cd" d="m56.43832 116.632545l80.62991 43.354332l0 0l-80.62991 43.354324z" fill-rule="evenodd"/><path stroke="#36f1cd" stroke-width="1.0" stroke-linejoin="round" stroke-linecap="butt" d="m56.43832 116.632545l80.62991 43.354332l0 0l-80.62991 43.354324z" fill-rule="evenodd"/></g></svg>