<svg version="1.1" viewBox="0.0 0.0 915.2992125984252 327.03674540682414" fill="none" stroke="none" stroke-linecap="square" stroke-miterlimit="10" xmlns:xlink="http://www.w3.org/1999/xlink" xmlns="http://www.w3.org/2000/svg"><clipPath id="p.0"><path d="m0 0l915.2992 0l0 327.03674l-915.2992 0l0 -327.03674z" clip-rule="nonzero"/></clipPath><g clip-path="url(#p.0)"><path fill="#000000" fill-opacity="0.0" d="m0 0l915.2992 0l0 327.03674l-915.2992 0z" fill-rule="evenodd"/><path fill="#000000" fill-opacity="0.0" d="m212.61417 34.145668l686.2992 0l0 252.81891l-686.2992 0z" fill-rule="evenodd"/><path fill="#000000" d="m232.03604 215.75513l0 -107.32813l19.625 0l0 92.00001l47.53125 0l0 15.328125l-67.15625 0zm117.610504 1.84375q-11.5 0 -20.40625 -4.90625q-8.890625 -4.90625 -13.953125 -13.796875q-5.046875 -8.90625 -5.046875 -20.546875q0 -11.8125 4.984375 -21.015625q4.984375 -9.203125 13.796875 -14.328125q8.8125 -5.140625 20.78125 -5.140625q11.1875 0 19.765625 4.90625q8.59375 4.90625 13.421875 13.421875q4.828125 8.5 4.828125 18.9375q0 1.671875 -0.078125 3.515625q-0.078125 1.84375 -0.21875 3.84375l-57.8125 0q0.609375 8.890625 6.203125 13.953125q5.609375 5.046875 13.578125 5.046875q5.984375 0 10.046875 -2.671875q4.0625 -2.6875 6.046875 -6.984375l19.9375 0q-2.140625 7.203125 -7.125 13.109375q-4.984375 5.90625 -12.265625 9.28125q-7.28125 3.375 -16.484375 3.375zm0.15625 -63.78125q-7.21875 0 -12.734375 4.0625q-5.515625 4.0625 -7.046875 12.34375l37.875 0q-0.46875 -7.515625 -5.53125 -11.953125q-5.0625 -4.453125 -12.5625 -4.453125zm85.09732 39.25q-5.53125 0 -10.28125 -1.234375l-5.671875 5.671875q2.609375 1.390625 7.046875 2.3125q4.453125 0.90625 14.421875 1.828125q15.171875 1.390625 22.078125 7.21875q6.90625 5.8125 6.90625 16.09375q0 6.75 -3.6875 12.796875q-3.6875 6.0625 -11.359375 9.8125q-7.65625 3.765625 -19.609375 3.765625q-16.25 0 -26.21875 -6.0625q-9.96875 -6.0625 -9.96875 -18.171875q0 -10.265625 9.96875 -17.78125q-3.078125 -1.375 -5.296875 -2.90625q-2.21875 -1.546875 -3.90625 -3.234375l0 -3.515625l13.34375 -14.109375q-8.890625 -7.828125 -8.890625 -20.09375q0 -7.65625 3.75 -13.9375q3.75 -6.296875 10.65625 -9.96875q6.90625 -3.6875 16.71875 -3.6875q6.4375 0 11.953125 1.84375l28.828125 0l0 11.953125l-13.03125 0.921875q3.0625 5.828125 3.0625 12.875q0 7.671875 -3.6875 13.96875q-3.671875 6.28125 -10.65625 9.96875q-6.96875 3.671875 -16.46875 3.671875zm0 -15.03125q5.96875 0 9.875 -3.21875q3.921875 -3.21875 3.921875 -9.203125q0 -5.984375 -3.921875 -9.203125q-3.90625 -3.21875 -9.875 -3.21875q-6.296875 0 -10.125 3.21875q-3.828125 3.21875 -3.828125 9.203125q0 5.984375 3.828125 9.203125q3.828125 3.21875 10.125 3.21875zm-18.40625 47.078125q0 5.671875 5.28125 8.5q5.296875 2.84375 12.96875 2.84375q7.359375 0 11.953125 -3.0q4.609375 -2.984375 4.609375 -8.046875q0 -4.140625 -3.0 -6.90625q-2.984375 -2.75 -11.875 -3.359375q-6.296875 -0.46875 -11.65625 -1.390625q-4.453125 2.453125 -6.375 5.359375q-1.90625 2.921875 -1.90625 6.0zm99.66562 -7.515625q-9.8125305 0 -16.109406 -3.140625q-6.28125 -3.15625 -9.34375 -8.359375q-3.0625 -5.21875 -3.0625 -11.5q0 -10.578125 8.265625 -17.171875q8.28125 -6.59375 24.84378 -6.59375l19.328125 0l0 -1.84375q0 -7.8125 -4.453125 -11.484375q-4.4375 -3.6875 -11.03125 -3.6875q-5.984375 0 -10.4375 2.84375q-4.4375305 2.828125 -5.5156555 8.34375l-19.171875 0q0.765625 -8.28125 5.59375 -14.40625q4.84375 -6.140625 12.5 -9.4375q7.6719055 -3.296875 17.171906 -3.296875q16.265625 0 25.609375 8.125q9.359375 8.125 9.359375 23.0l0 46.765625l-16.71875 0l-1.84375 -12.265625q-3.359375 6.125 -9.421875 10.125q-6.0625 3.984375 -15.5625 3.984375zm4.4375 -15.34375q8.4375 0 13.109375 -5.515625q4.6875 -5.515625 5.90625 -13.640625l-16.703125 0q-7.828125 0 -11.2031555 2.84375q-3.375 2.828125 -3.375 6.96875q0 4.4375 3.375 6.890625q3.3750305 2.453125 8.8906555 2.453125zm57.814087 13.5l0 -110.39063l19.625 0l0 110.39063l-19.625 0zm84.79016 1.84375q-8.59375 0 -15.03125 -3.21875q-6.4375 -3.21875 -10.421875 -9.046875l-2.140625 10.421875l-17.484375 0l0 -110.39063l19.625 0l0 45.218758q3.671875 -5.046875 9.734375 -8.875q6.0625 -3.84375 15.71875 -3.84375q10.734375 0 19.15625 5.21875q8.4375 5.203125 13.34375 14.25q4.90625 9.046875 4.90625 20.546875q0 11.5 -4.90625 20.46875q-4.90625 8.96875 -13.34375 14.109375q-8.421875 5.140625 -19.15625 5.140625zm-4.140625 -17.171875q9.359375 0 15.484375 -6.28125q6.140625 -6.296875 6.140625 -16.265625q0 -9.96875 -6.140625 -16.40625q-6.125 -6.4375 -15.484375 -6.4375q-9.5 0 -15.5625 6.375q-6.0625 6.359375 -6.0625 16.3125q0 9.96875 6.0625 16.34375q6.0625 6.359375 15.5625 6.359375zm95.516846 17.171875q-11.03125 0 -19.859375 -5.0625q-8.8125 -5.0625 -13.953125 -14.03125q-5.125 -8.96875 -5.125 -20.78125q0 -11.796875 5.203125 -20.765625q5.21875 -8.96875 14.03125 -14.03125q8.828125 -5.0625 19.859375 -5.0625q10.890625 0 19.703125 5.0625q8.8125 5.0625 13.953125 14.03125q5.140625 8.96875 5.140625 20.765625q0 11.8125 -5.140625 20.78125q-5.140625 8.96875 -14.03125 14.03125q-8.890625 5.0625 -19.78125 5.0625zm0 -17.015625q7.671875 0 13.34375 -5.75q5.671875 -5.75 5.671875 -17.109375q0 -11.34375 -5.671875 -17.09375q-5.671875 -5.75 -13.1875 -5.75q-7.8125 0 -13.421875 5.75q-5.59375 5.75 -5.59375 17.09375q0 11.359375 5.59375 17.109375q5.609375 5.75 13.265625 5.75z" fill-rule="nonzero"/><path fill="#000000" d="m803.8068 215.75513l27.59375 -38.03125l-27.59375 -38.015625l21.0 0l19.3125 26.984375l19.171875 -26.984375l21.15625 0l-27.75 38.015625l27.75 38.03125l-21.15625 0l-19.171875 -26.984375l-19.3125 26.984375l-21.0 0z" fill-rule="nonzero"/><path fill="#000000" fill-opacity="0.0" d="m102.67427 168.63763c0 21.858276 0.01574707 32.787415 0.03149414 43.716537c0.01574707 10.929138 0.03149414 21.858276 0.03149414 43.716537" fill-rule="evenodd"/><path stroke="#36f1cd" stroke-width="1.0" stroke-linejoin="round" stroke-linecap="butt" d="m102.67427 168.63763c0 21.858276 0.01574707 32.787415 0.03149414 43.716537c0.01574707 10.929138 0.03149414 21.858276 0.03149414 43.716537" fill-rule="evenodd"/><path fill="#000000" fill-opacity="0.0" d="m91.86614 264.35303l-72.06299 -39.748047" fill-rule="evenodd"/><path stroke="#f887bc" stroke-width="1.0" stroke-linejoin="round" stroke-linecap="butt" d="m91.86614 264.35303l-72.06299 -39.748047" fill-rule="evenodd"/><path fill="#000000" fill-opacity="0.0" d="m8.727069 204.70229l0 -69.41733" fill-rule="evenodd"/><path stroke="#36f1cd" stroke-width="1.0" stroke-linejoin="round" stroke-linecap="butt" d="m8.727069 204.70229l0 -69.41733" fill-rule="evenodd"/><path fill="#000000" fill-opacity="0.0" d="m12.610744 123.88893l90.4252 44.944885" fill-rule="evenodd"/><path stroke="#f887bc" stroke-width="1.0" stroke-linejoin="round" stroke-linecap="butt" d="m12.610744 123.88893l90.4252 44.944885" fill-rule="evenodd"/><path fill="#000000" fill-opacity="0.0" d="m8.698102 135.31142c0.041035652 -0.36972046 0.106554985 -1.3888397 0.24621391 -2.218277c0.13965988 -0.8294525 0.32897568 -1.8140869 0.5917425 -2.758377c0.26276684 -0.9442749 0.6648474 -2.1189423 0.98485756 -2.9073486c0.3200102 -0.78839874 0.58208656 -1.2481308 0.9352007 -1.8230438c0.35311508 -0.57492065 0.9862375 -1.3553848 1.183485 -1.6264648" fill-rule="evenodd"/><path stroke="#36f1cd" stroke-width="1.0" stroke-linejoin="round" stroke-linecap="butt" d="m8.698102 135.31142c0.041035652 -0.36972046 0.106554985 -1.3888397 0.24621391 -2.218277c0.13965988 -0.8294525 0.32897568 -1.8140869 0.5917425 -2.758377c0.26276684 -0.9442749 0.6648474 -2.1189423 0.98485756 -2.9073486c0.3200102 -0.78839874 0.58208656 -1.2481308 0.9352007 -1.8230438c0.35311508 -0.57492065 0.9862375 -1.3553848 1.183485 -1.6264648" fill-rule="evenodd"/><path fill="#36f1cd" d="m89.086136 263.37546l0 0c-4.461769 -2.4961548 -6.1045685 -8.037949 -3.6692963 -12.377945q0.13634491 -0.24298096 7.851837 3.7542267q4.3865585 -7.232559 4.6363525 -7.092804l0 0c4.461769 2.4961548 6.104561 8.037949 3.6692963 12.37796l0 0c-2.4352722 4.3399963 -8.026428 5.834717 -12.48819 3.338562z" fill-rule="evenodd"/><path stroke="#36f1cd" stroke-width="1.0" stroke-linejoin="round" stroke-linecap="butt" d="m89.086136 263.37546l0 0c-4.461769 -2.4961548 -6.1045685 -8.037949 -3.6692963 -12.377945q0.13634491 -0.24298096 7.851837 3.7542267q4.3865585 -7.232559 4.6363525 -7.092804l0 0c4.461769 2.4961548 6.104561 8.037949 3.6692963 12.37796l0 0c-2.4352722 4.3399963 -8.026428 5.834717 -12.48819 3.338562z" fill-rule="evenodd"/><path fill="#36f1cd" d="m12.222109 194.20035l0 0c4.774872 -2.5396423 12.579924 2.797699 17.433071 11.921265q0.27170563 0.51078796 -7.567608 5.3356323q7.9766636 15.640289 7.709339 15.782471l0 0c-4.77487 2.5396423 -12.579922 -2.7976837 -17.433071 -11.921249l0 0c-4.8531475 -9.123581 -4.9166036 -18.578476 -0.14173222 -21.118118z" fill-rule="evenodd"/><path stroke="#36f1cd" stroke-width="1.0" stroke-linejoin="round" stroke-linecap="butt" d="m12.222109 194.20035l0 0c4.774872 -2.5396423 12.579924 2.797699 17.433071 11.921265q0.27170563 0.51078796 -7.567608 5.3356323q7.9766636 15.640289 7.709339 15.782471l0 0c-4.77487 2.5396423 -12.579922 -2.7976837 -17.433071 -11.921249l0 0c-4.8531475 -9.123581 -4.9166036 -18.578476 -0.14173222 -21.118118z" fill-rule="evenodd"/><path fill="#36f1cd" d="m77.2035 169.42183l25.669289 0l0 83.086624l-25.669289 0z" fill-rule="evenodd"/><path fill="#36f1cd" d="m21.309746 225.76723l12.440945 -22.48819l68.409454 37.88977l-12.4409485 22.488174z" fill-rule="evenodd"/><path stroke="#36f1cd" stroke-width="1.0" stroke-linejoin="round" stroke-linecap="butt" d="m21.309746 225.76723l12.440945 -22.48819l68.409454 37.88977l-12.4409485 22.488174z" fill-rule="evenodd"/><path fill="#36f1cd" d="m8.998101 152.08278l11.968505 -23.874023l81.51181 40.818893l-11.968506 23.874023z" fill-rule="evenodd"/><path stroke="#36f1cd" stroke-width="1.0" stroke-linejoin="round" stroke-linecap="butt" d="m8.998101 152.08278l11.968505 -23.874023l81.51181 40.818893l-11.968506 23.874023z" fill-rule="evenodd"/><path fill="#36f1cd" d="m8.675342 152.50684l51.874016 0l0 50.803146l-51.874016 0z" fill-rule="evenodd"/><path stroke="#36f1cd" stroke-width="1.0" stroke-linejoin="round" stroke-linecap="butt" d="m8.675342 152.50684l51.874016 0l0 50.803146l-51.874016 0z" fill-rule="evenodd"/><path fill="#36f1cd" d="m19.821512 168.83006l51.874016 0l0 50.80316l-51.874016 0z" fill-rule="evenodd"/><path stroke="#36f1cd" stroke-width="1.0" stroke-linejoin="round" stroke-linecap="butt" d="m19.821512 168.83006l51.874016 0l0 50.80316l-51.874016 0z" fill-rule="evenodd"/><path fill="#36f1cd" d="m35.809345 178.00244l51.87402 0l0 50.803146l-51.87402 0z" fill-rule="evenodd"/><path stroke="#36f1cd" stroke-width="1.0" stroke-linejoin="round" stroke-linecap="butt" d="m35.809345 178.00244l51.87402 0l0 50.803146l-51.87402 0z" fill-rule="evenodd"/><path fill="#36f1cd" d="m20.30666 127.87757l-10.582677 22.173225l3.6535435 -25.480309z" fill-rule="evenodd"/><path stroke="#36f1cd" stroke-width="1.0" stroke-linejoin="round" stroke-linecap="butt" d="m20.30666 127.87757l-10.582677 22.173225l3.6535435 -25.480309z" fill-rule="evenodd"/><path fill="#36f1cd" d="m8.8346615 133.99863l15.149607 0l0 18.267715l-15.149607 0z" fill-rule="evenodd"/><path stroke="#36f1cd" stroke-width="1.0" stroke-linejoin="round" stroke-linecap="butt" d="m8.8346615 133.99863l15.149607 0l0 18.267715l-15.149607 0z" fill-rule="evenodd"/><path fill="#36f1cd" d="m9.339519 132.1716l4.4409447 0l0 3.653534l-4.4409447 0z" fill-rule="evenodd"/><path stroke="#36f1cd" stroke-width="1.0" stroke-linejoin="round" stroke-linecap="butt" d="m9.339519 132.1716l4.4409447 0l0 3.653534l-4.4409447 0z" fill-rule="evenodd"/><path fill="#36f1cd" d="m12.741029 123.93472l2.2677164 1.2283478l-2.582677 4.6614227l-2.2677164 -1.2283478z" fill-rule="evenodd"/><path stroke="#36f1cd" stroke-width="1.0" stroke-linejoin="round" stroke-linecap="butt" d="m12.741029 123.93472l2.2677164 1.2283478l-2.582677 4.6614227l-2.2677164 -1.2283478z" fill-rule="evenodd"/><path fill="#36f1cd" d="m9.980548 128.97482l4.4409447 0l0 3.6535492l-4.4409447 0z" fill-rule="evenodd"/><path stroke="#36f1cd" stroke-width="1.0" stroke-linejoin="round" stroke-linecap="butt" d="m9.980548 128.97482l4.4409447 0l0 3.6535492l-4.4409447 0z" fill-rule="evenodd"/><path fill="#000022" d="m103.16226 123.87553l0 44.755913l-90.645676 -44.755913z" fill-rule="evenodd"/><path stroke="#000022" stroke-width="1.0" stroke-linejoin="round" stroke-linecap="butt" d="m103.16226 123.87553l0 44.755913l-90.645676 -44.755913z" fill-rule="evenodd"/><path fill="#000022" d="m103.16226 128.22198l0 40.409454l79.2126 -40.409454z" fill-rule="evenodd"/><path stroke="#000022" stroke-width="1.0" stroke-linejoin="round" stroke-linecap="butt" d="m103.16226 128.22198l0 40.409454l79.2126 -40.409454z" fill-rule="evenodd"/><path fill="#000022" d="m92.669464 115.56853l0 -36.566933l-70.99213 36.566933z" fill-rule="evenodd"/><path stroke="#000022" stroke-width="1.0" stroke-linejoin="round" stroke-linecap="butt" d="m92.669464 115.56853l0 -36.566933l-70.99213 36.566933z" fill-rule="evenodd"/><path fill="#000022" d="m108.65775 114.02522l0 -35.02363l72.062996 35.02363z" fill-rule="evenodd"/><path stroke="#000022" stroke-width="1.0" stroke-linejoin="round" stroke-linecap="butt" d="m108.65775 114.02522l0 -35.02363l72.062996 35.02363z" fill-rule="evenodd"/><path fill="#000022" d="m171.7897 129.01802l0 0c-4.540039 -2.5483322 -6.316803 -8.005524 -3.9685059 -12.188972q0.13146973 -0.23421478 7.975052 3.860405q4.24321 -6.963707 4.4973907 -6.8210373l0 0c4.540039 2.5483398 6.316803 8.005531 3.9685059 12.18898l0 0c-2.348297 4.183449 -7.9324036 5.5089645 -12.472443 2.9606247z" fill-rule="evenodd"/><path stroke="#000022" stroke-width="1.0" stroke-linejoin="round" stroke-linecap="butt" d="m171.7897 129.01802l0 0c-4.540039 -2.5483322 -6.316803 -8.005524 -3.9685059 -12.188972q0.13146973 -0.23421478 7.975052 3.860405q4.24321 -6.963707 4.4973907 -6.8210373l0 0c4.540039 2.5483398 6.316803 8.005531 3.9685059 12.18898l0 0c-2.348297 4.183449 -7.9324036 5.5089645 -12.472443 2.9606247z" fill-rule="evenodd"/><path fill="#ff00ff" d="m108.76501 81.207405l0 0c5.4967575 4.2965164 6.8857346 11.692635 3.1023636 16.519684q-0.21181488 0.2702484 -9.76091 -6.75795q-6.7345047 7.9591293 -7.0422363 7.718582l0 0c-5.4967575 -4.2965164 -6.8857346 -11.692627 -3.1023636 -16.519684l0 0c3.7833633 -4.827057 11.306389 -5.257141 16.803146 -0.9606323z" fill-rule="evenodd"/><path stroke="#305bce" stroke-width="1.0" stroke-linejoin="round" stroke-linecap="butt" d="m108.76501 81.207405l0 0c5.4967575 4.2965164 6.8857346 11.692635 3.1023636 16.519684q-0.21181488 0.2702484 -9.76091 -6.75795q-6.7345047 7.9591293 -7.0422363 7.718582l0 0c-5.4967575 -4.2965164 -6.8857346 -11.692627 -3.1023636 -16.519684l0 0c3.7833633 -4.827057 11.306389 -5.257141 16.803146 -0.9606323z" fill-rule="evenodd"/><path fill="#000022" d="m22.029037 115.83801c-1.4369411 1.3222809 -8.129214 6.9890366 -8.621643 7.9336624c-0.49242878 0.9446335 4.722559 -1.8882217 5.6670704 -2.2658691" fill-rule="evenodd"/><path stroke="#000022" stroke-width="1.0" stroke-linejoin="round" stroke-linecap="butt" d="m22.029037 115.83801c-1.4369411 1.3222809 -8.129214 6.9890366 -8.621643 7.9336624c-0.49242878 0.9446335 4.722559 -1.8882217 5.6670704 -2.2658691" fill-rule="evenodd"/><path fill="#000022" d="m21.439297 115.64145c-0.50932693 0.4186859 -2.2428284 1.8551178 -3.055956 2.512123c-0.8131275 0.6569977 -1.1496906 0.82219696 -1.822815 1.4298782c-0.67312336 0.6076813 -1.5921173 1.5919724 -2.215929 2.2162094c-0.6238127 0.62423706 -1.2724533 1.2743378 -1.5269432 1.5292053" fill-rule="evenodd"/><path stroke="#000022" stroke-width="1.0" stroke-linejoin="round" stroke-linecap="butt" d="m21.439297 115.64145c-0.50932693 0.4186859 -2.2428284 1.8551178 -3.055956 2.512123c-0.8131275 0.6569977 -1.1496906 0.82219696 -1.822815 1.4298782c-0.67312336 0.6076813 -1.5921173 1.5919724 -2.215929 2.2162094c-0.6238127 0.62423706 -1.2724533 1.2743378 -1.5269432 1.5292053" fill-rule="evenodd"/><path fill="#000022" d="m15.970924 124.5586c-0.55001736 -0.114845276 -2.9304352 -0.3441925 -3.3001013 -0.6890793c-0.3696661 -0.34487915 0.9017515 -1.150177 1.0821018 -1.3802109" fill-rule="evenodd"/><path stroke="#000022" stroke-width="1.0" stroke-linejoin="round" stroke-linecap="butt" d="m15.970924 124.5586c-0.55001736 -0.114845276 -2.9304352 -0.3441925 -3.3001013 -0.6890793c-0.3696661 -0.34487915 0.9017515 -1.150177 1.0821018 -1.3802109" fill-rule="evenodd"/><path fill="#000022" d="m21.240906 116.42985c0.016551971 -0.12312317 0.082761765 -0.61561584 0.099313736 -0.738739" fill-rule="evenodd"/><path stroke="#000022" stroke-width="1.0" stroke-linejoin="round" stroke-linecap="butt" d="m21.240906 116.42985c0.016551971 -0.12312317 0.082761765 -0.61561584 0.099313736 -0.738739" fill-rule="evenodd"/><path fill="#000022" d="m21.340221 115.69111c0 0 4.2373714 0.19657898 4.2373714 0.19657898c0 0 -4.2373714 -0.19657898 -4.2373714 -0.19657898z" fill-rule="evenodd"/><path stroke="#000022" stroke-width="1.0" stroke-linejoin="round" stroke-linecap="butt" d="m21.340221 115.69111c0 0 4.2373714 0.19657898 4.2373714 0.19657898c0 0 -4.2373714 -0.19657898 -4.2373714 -0.19657898z" fill-rule="evenodd"/><path fill="#000022" d="m14.556529 124.32726l0 0c-0.34500408 -0.29862213 -0.38235474 -0.8201599 -0.08342552 -1.1648941l6.728505 -7.7594833c0.14355087 -0.1655426 0.34703636 -0.26734924 0.5656948 -0.28300476c0.21865654 -0.015663147 0.43457222 0.056106567 0.60024834 0.19950104l2.498663 2.162712c0.34500313 0.2986145 0.38235474 0.8201523 0.08342552 1.1648865l-6.728506 7.7594833c-0.2989292 0.3447342 -0.82094 0.38211823 -1.1659431 0.08350372z" fill-rule="evenodd"/><path fill="#000022" d="m15.755996 121.39827l0 0c-0.13336277 -0.11886597 -0.14525986 -0.32347107 -0.026572227 -0.4569931l1.3339748 -1.5007172c0.0569973 -0.06412506 0.13709831 -0.10294342 0.22268486 -0.107917786c0.085588455 -0.0049743652 0.16964912 0.024299622 0.23369217 0.08137512l0.9658699 0.8608856c0.13336372 0.11886597 0.14525986 0.32347107 0.026573181 0.4569931l-1.3339767 1.5007248c-0.118686676 0.13352203 -0.3230133 0.145401 -0.45637512 0.026535034z" fill-rule="evenodd"/><path stroke="#000022" stroke-width="1.0" stroke-linejoin="round" stroke-linecap="butt" d="m15.755996 121.39827l0 0c-0.13336277 -0.11886597 -0.14525986 -0.32347107 -0.026572227 -0.4569931l1.3339748 -1.5007172c0.0569973 -0.06412506 0.13709831 -0.10294342 0.22268486 -0.107917786c0.085588455 -0.0049743652 0.16964912 0.024299622 0.23369217 0.08137512l0.9658699 0.8608856c0.13336372 0.11886597 0.14525986 0.32347107 0.026573181 0.4569931l-1.3339767 1.5007248c-0.118686676 0.13352203 -0.3230133 0.145401 -0.45637512 0.026535034z" fill-rule="evenodd"/><path fill="#000022" d="m22.363241 123.79988l0 0c-0.7334957 0 -1.3281116 -0.5946121 -1.3281116 -1.3281097l0 -5.3122787l0 0c0 -0.35224152 0.13992691 -0.6900482 0.38899612 -0.93911743c0.2490673 -0.24906921 0.5868778 -0.38899994 0.9391155 -0.38899994l27.17055 0c0.7334976 0 1.3281097 0.59461975 1.3281097 1.3281174l0 5.3122787c0 0.7334976 -0.5946121 1.3281097 -1.3281097 1.3281097z" fill-rule="evenodd"/><path stroke="#000022" stroke-width="1.0" stroke-linejoin="round" stroke-linecap="butt" d="m22.363241 123.79988l0 0c-0.7334957 0 -1.3281116 -0.5946121 -1.3281116 -1.3281097l0 -5.3122787l0 0c0 -0.35224152 0.13992691 -0.6900482 0.38899612 -0.93911743c0.2490673 -0.24906921 0.5868778 -0.38899994 0.9391155 -0.38899994l27.17055 0c0.7334976 0 1.3281097 0.59461975 1.3281097 1.3281174l0 5.3122787c0 0.7334976 -0.5946121 1.3281097 -1.3281097 1.3281097z" fill-rule="evenodd"/><path fill="#000022" d="m15.128895 124.53858l0 0c-0.22033882 0 -0.3989582 -0.17861938 -0.3989582 -0.3989563l0 -1.595787l0 0c0 -0.10581207 0.04203224 -0.20729065 0.11685181 -0.2821045c0.074819565 -0.07482147 0.17629528 -0.11685181 0.2821064 -0.11685181l43.233578 0c0.22034073 0 0.3989601 0.17861938 0.3989601 0.3989563l0 1.595787c0 0.22033691 -0.17861938 0.3989563 -0.3989601 0.3989563z" fill-rule="evenodd"/><path stroke="#000022" stroke-width="1.0" stroke-linejoin="round" stroke-linecap="butt" d="m15.128895 124.53858l0 0c-0.22033882 0 -0.3989582 -0.17861938 -0.3989582 -0.3989563l0 -1.595787l0 0c0 -0.10581207 0.04203224 -0.20729065 0.11685181 -0.2821045c0.074819565 -0.07482147 0.17629528 -0.11685181 0.2821064 -0.11685181l43.233578 0c0.22034073 0 0.3989601 0.17861938 0.3989601 0.3989563l0 1.595787c0 0.22033691 -0.17861938 0.3989563 -0.3989601 0.3989563z" fill-rule="evenodd"/><path fill="#305bce" d="m47.591187 123.799965l0 0c-0.7334938 0 -1.3281097 -0.59461975 -1.3281097 -1.3281097l0 -5.3122864l0 0c0 -0.3522339 0.1399231 -0.6900482 0.3889923 -0.93911743c0.24906921 -0.24906921 0.58687973 -0.3889923 0.93911743 -0.3889923l49.564255 0c0.73349 0 1.3281097 0.5946121 1.3281097 1.3281097l0 5.3122864c0 0.73349 -0.59461975 1.3281097 -1.3281097 1.3281097z" fill-rule="evenodd"/><path stroke="#305bce" stroke-width="1.0" stroke-linejoin="round" stroke-linecap="butt" d="m47.591187 123.799965l0 0c-0.7334938 0 -1.3281097 -0.59461975 -1.3281097 -1.3281097l0 -5.3122864l0 0c0 -0.3522339 0.1399231 -0.6900482 0.3889923 -0.93911743c0.24906921 -0.24906921 0.58687973 -0.3889923 0.93911743 -0.3889923l49.564255 0c0.73349 0 1.3281097 0.5946121 1.3281097 1.3281097l0 5.3122864c0 0.73349 -0.59461975 1.3281097 -1.3281097 1.3281097z" fill-rule="evenodd"/><path fill="#000022" d="m111.343094 80.71289l0 0c5.49675 4.2965164 6.885727 11.692627 3.102356 16.519684q-0.21181488 0.2702484 -9.760902 -6.75795q-6.7345047 7.9591217 -7.042244 7.718582l0 0c-5.4967575 -4.2965164 -6.8857346 -11.692635 -3.1023636 -16.519684l0 0c3.783371 -4.827057 11.3063965 -5.2571487 16.803154 -0.9606323z" fill-rule="evenodd"/><path stroke="#000022" stroke-width="1.0" stroke-linejoin="round" stroke-linecap="butt" d="m111.343094 80.71289l0 0c5.49675 4.2965164 6.885727 11.692627 3.102356 16.519684q-0.21181488 0.2702484 -9.760902 -6.75795q-6.7345047 7.9591217 -7.042244 7.718582l0 0c-5.4967575 -4.2965164 -6.8857346 -11.692635 -3.1023636 -16.519684l0 0c3.783371 -4.827057 11.3063965 -5.2571487 16.803154 -0.9606323z" fill-rule="evenodd"/><path fill="#000022" d="m98.05971 77.274216l0 0c7.4362793 -0.8349533 14.014519 3.4306793 14.692917 9.527557q0.037979126 0.3413391 -12.555962 2.100998q0.7360611 10.403442 0.3197403 10.450188l0 0c-7.4362793 0.8349457 -14.014519 -3.430687 -14.692917 -9.527565l0 0c-0.6783905 -6.0968704 4.7999496 -11.716225 12.236221 -12.551178z" fill-rule="evenodd"/><path stroke="#000022" stroke-width="1.0" stroke-linejoin="round" stroke-linecap="butt" d="m98.05971 77.274216l0 0c7.4362793 -0.8349533 14.014519 3.4306793 14.692917 9.527557q0.037979126 0.3413391 -12.555962 2.100998q0.7360611 10.403442 0.3197403 10.450188l0 0c-7.4362793 0.8349457 -14.014519 -3.430687 -14.692917 -9.527565l0 0c-0.6783905 -6.0968704 4.7999496 -11.716225 12.236221 -12.551178z" fill-rule="evenodd"/><path fill="#000022" d="m110.884094 116.88841l0 0c0 -1.2495499 1.0129547 -2.2625122 2.2625122 -2.2625122l63.097015 0c0.6000519 0 1.1755371 0.2383728 1.5998383 0.66267395c0.42430115 0.42430878 0.66267395 0.9997864 0.66267395 1.5998383l0 9.049782c0 1.2495499 -1.0129547 2.2625046 -2.2625122 2.2625046l-63.097015 0l0 0c-1.2495575 0 -2.2625122 -1.0129547 -2.2625122 -2.2625046z" fill-rule="evenodd"/><path stroke="#000022" stroke-width="1.0" stroke-linejoin="round" stroke-linecap="butt" d="m110.884094 116.88841l0 0c0 -1.2495499 1.0129547 -2.2625122 2.2625122 -2.2625122l63.097015 0c0.6000519 0 1.1755371 0.2383728 1.5998383 0.66267395c0.42430115 0.42430878 0.66267395 0.9997864 0.66267395 1.5998383l0 9.049782c0 1.2495499 -1.0129547 2.2625046 -2.2625122 2.2625046l-63.097015 0l0 0c-1.2495575 0 -2.2625122 -1.0129547 -2.2625122 -2.2625046z" fill-rule="evenodd"/><path fill="#305bce" d="m88.91039 116.9091l0 0c0 -1.2495499 1.0129547 -2.2625122 2.2625122 -2.2625122l63.097023 0c0.6000519 0 1.1755371 0.2383728 1.5998383 0.66267395c0.42430115 0.42430878 0.66267395 0.9997864 0.66267395 1.5998383l0 9.049782c0 1.2495499 -1.01297 2.2625046 -2.2625122 2.2625046l-63.097023 0l0 0c-1.2495575 0 -2.2625122 -1.0129547 -2.2625122 -2.2625046z" fill-rule="evenodd"/><path stroke="#305bce" stroke-width="1.0" stroke-linejoin="round" stroke-linecap="butt" d="m88.91039 116.9091l0 0c0 -1.2495499 1.0129547 -2.2625122 2.2625122 -2.2625122l63.097023 0c0.6000519 0 1.1755371 0.2383728 1.5998383 0.66267395c0.42430115 0.42430878 0.66267395 0.9997864 0.66267395 1.5998383l0 9.049782c0 1.2495499 -1.01297 2.2625046 -2.2625122 2.2625046l-63.097023 0l0 0c-1.2495575 0 -2.2625122 -1.0129547 -2.2625122 -2.2625046z" fill-rule="evenodd"/><path fill="#305bce" d="m47.822464 110.36728l72.06299 0l0 8.125984l-72.06299 0z" fill-rule="evenodd"/><path stroke="#305bce" stroke-width="1.0" stroke-linejoin="round" stroke-linecap="butt" d="m47.822464 110.36728l72.06299 0l0 8.125984l-72.06299 0z" fill-rule="evenodd"/><path fill="#000022" d="m89.24765 92.50063l0 0c0 -2.7049408 2.1927948 -4.8977356 4.8977356 -4.8977356l19.590355 0l0 0c1.2989578 0 2.544716 0.5160141 3.4632263 1.4345169c0.9185028 0.9185028 1.4345093 2.1642609 1.4345093 3.4632187l0 21.763588c0 2.7049408 -2.1927872 4.8977356 -4.8977356 4.8977356l-19.590355 0c-2.7049408 0 -4.8977356 -2.1927948 -4.8977356 -4.8977356z" fill-rule="evenodd"/><path stroke="#000022" stroke-width="1.0" stroke-linejoin="round" stroke-linecap="butt" d="m89.24765 92.50063l0 0c0 -2.7049408 2.1927948 -4.8977356 4.8977356 -4.8977356l19.590355 0l0 0c1.2989578 0 2.544716 0.5160141 3.4632263 1.4345169c0.9185028 0.9185028 1.4345093 2.1642609 1.4345093 3.4632187l0 21.763588c0 2.7049408 -2.1927872 4.8977356 -4.8977356 4.8977356l-19.590355 0c-2.7049408 0 -4.8977356 -2.1927948 -4.8977356 -4.8977356z" fill-rule="evenodd"/><path fill="#000022" d="m165.59074 115.40389l0 0c0 -0.87555695 0.70977783 -1.5853348 1.5853424 -1.5853348l11.978928 0c0.42045593 0 0.82369995 0.16703033 1.1210022 0.4643402c0.29730225 0.29730225 0.4643402 0.70053864 0.4643402 1.1209946l0 6.3411484c0 0.8755493 -0.70977783 1.5853348 -1.5853424 1.5853348l-11.978928 0c-0.8755646 0 -1.5853424 -0.70978546 -1.5853424 -1.5853348z" fill-rule="evenodd"/><path stroke="#000022" stroke-width="1.0" stroke-linejoin="round" stroke-linecap="butt" d="m165.59074 115.40389l0 0c0 -0.87555695 0.70977783 -1.5853348 1.5853424 -1.5853348l11.978928 0c0.42045593 0 0.82369995 0.16703033 1.1210022 0.4643402c0.29730225 0.29730225 0.4643402 0.70053864 0.4643402 1.1209946l0 6.3411484c0 0.8755493 -0.70977783 1.5853348 -1.5853424 1.5853348l-11.978928 0c-0.8755646 0 -1.5853424 -0.70978546 -1.5853424 -1.5853348z" fill-rule="evenodd"/><path fill="#000022" d="m22.033688 126.17183l74.22035 -48.126045l2.4414062E-4 1.1444092E-4l7.0077515 88.18892z" fill-rule="evenodd"/><path stroke="#000022" stroke-width="1.0" stroke-linejoin="round" stroke-linecap="butt" d="m22.033688 126.17183l74.22035 -48.126045l2.4414062E-4 1.1444092E-4l7.0077515 88.18892z" fill-rule="evenodd"/><path fill="#000022" d="m98.48286 77.58401l82.42519 43.85827l0 0l-82.42519 43.85826z" fill-rule="evenodd"/><path stroke="#000022" stroke-width="1.0" stroke-linejoin="round" stroke-linecap="butt" d="m98.48286 77.58401l82.42519 43.85827l0 0l-82.42519 43.85826z" fill-rule="evenodd"/><path fill="#36f1cd" d="m14.422581 213.83751l79.95224 -43.778793l2.0797653 1.2268829l0.45617676 91.21333z" fill-rule="evenodd"/><path stroke="#36f1cd" stroke-width="1.0" stroke-linejoin="round" stroke-linecap="butt" d="m14.422581 213.83751l79.95224 -43.778793l2.0797653 1.2268829l0.45617676 91.21333z" fill-rule="evenodd"/><path fill="#36f1cd" d="m13.461941 126.6601l80.62991 43.354332l0 0l-80.62991 43.354324z" fill-rule="evenodd"/><path stroke="#36f1cd" stroke-width="1.0" stroke-linejoin="round" stroke-linecap="butt" d="m13.461941 126.6601l80.62991 43.354332l0 0l-80.62991 43.354324z" fill-rule="evenodd"/></g></svg>